<?xml version="1.0" standalone="no"?>
<!DOCTYPE svg PUBLIC "-//W3C//DTD SVG 20010904//EN"
 "http://www.w3.org/TR/2001/REC-SVG-20010904/DTD/svg10.dtd">
<svg version="1.0" xmlns="http://www.w3.org/2000/svg"
 width="640.000000pt" height="359.000000pt" viewBox="0 0 640.000000 359.000000"
 preserveAspectRatio="xMidYMid meet">

<g transform="translate(0.000000,359.000000) scale(0.100000,-0.100000)"
fill="#000000" stroke="none">
<path d="M1215 3317 c-9 -5 -15 -21 -14 -40 0 -18 3 -26 6 -19 3 8 26 27 52
43 l46 30 -37 -3 c-21 -1 -45 -6 -53 -11z"/>
<path d="M2366 2751 c-46 -9 -81 -22 -84 -30 -3 -10 2 -12 19 -8 13 3 59 13
102 22 42 9 77 21 77 26 0 12 -19 10 -114 -10z"/>
<path d="M1370 2745 c0 -2 21 -17 48 -32 26 -15 65 -40 86 -55 36 -26 83 -34
110 -20 5 3 -29 29 -75 58 -68 44 -92 54 -126 54 -24 0 -43 -2 -43 -5z"/>
<path d="M2371 2701 c-42 -9 -77 -23 -79 -30 -3 -9 1 -12 11 -8 8 3 54 13 101
23 47 9 86 21 86 25 0 12 -32 9 -119 -10z"/>
<path d="M2876 2684 l-29 -16 32 -14 c18 -7 58 -30 90 -49 l58 -36 68 12 68
13 -32 26 c-81 68 -196 97 -255 64z"/>
<path d="M994 2546 c-28 -13 -50 -46 -31 -46 14 0 64 47 56 53 -2 2 -14 -1
-25 -7z"/>
<path d="M2405 2509 c-183 -11 -478 -43 -640 -70 -324 -54 -625 -127 -625
-153 0 -6 17 -24 37 -40 61 -43 79 -58 64 -50 -10 5 -13 3 -8 -8 4 -11 -1 -17
-17 -20 -18 -4 -27 4 -44 34 -13 21 -36 45 -52 53 -27 14 -37 13 -127 -11 -83
-23 -128 -28 -303 -34 -303 -12 -485 -58 -556 -143 -32 -38 -30 -49 9 -84 49
-43 59 -81 45 -164 -6 -38 -8 -72 -5 -75 3 -3 19 2 35 10 25 13 32 24 38 61 8
54 14 59 42 39 18 -12 22 -25 22 -65 l0 -50 38 3 c36 3 37 4 37 43 0 22 -4 55
-8 73 -12 56 25 83 158 115 140 33 225 48 236 41 5 -3 18 0 28 6 27 14 45 -15
60 -99 13 -68 16 -205 5 -222 -4 -7 0 -9 12 -6 11 3 34 9 52 12 64 13 78 100
41 257 -12 53 -17 94 -12 99 5 5 30 13 55 17 45 9 46 8 42 -14 -2 -13 -15 -40
-29 -60 -14 -20 -25 -43 -25 -50 0 -7 -3 -19 -6 -28 -3 -9 -1 -16 5 -16 6 0
11 9 11 21 0 11 5 17 10 14 6 -3 10 -17 10 -31 0 -13 6 -24 13 -25 6 0 52 -3
100 -5 49 -2 97 -9 107 -14 10 -6 33 -10 51 -10 18 0 46 -4 63 -9 42 -13 200
-50 257 -61 25 -4 63 -15 83 -24 21 -9 55 -15 75 -15 l36 1 -35 8 c-19 4 -48
13 -65 18 -33 12 -116 35 -210 58 -33 8 -77 19 -97 25 -21 5 -55 13 -75 18
-21 4 -56 15 -78 23 -22 8 -65 23 -95 33 -30 10 -62 24 -71 31 -9 8 -19 11
-22 8 -15 -16 -18 28 -3 51 20 30 112 85 143 85 12 0 25 5 28 10 3 6 18 10 33
10 15 0 44 5 65 11 33 9 37 13 26 26 -11 12 -10 17 6 26 11 6 20 9 21 6 0 -2
7 1 15 8 35 28 327 75 799 128 451 51 530 70 530 129 0 59 -21 62 -335 45z
m-1262 -305 c11 -11 -3 -24 -18 -18 -8 4 -12 10 -9 15 6 11 18 12 27 3z m-173
-64 c0 -5 -9 -10 -20 -10 -11 0 -20 5 -20 10 0 6 9 10 20 10 11 0 20 -4 20
-10z"/>
<path d="M3276 2478 c-8 -9 -11 -20 -7 -23 5 -3 12 2 15 10 6 17 3 19 94 -58
55 -47 102 -76 162 -102 25 -10 61 -29 80 -42 19 -13 38 -23 42 -23 5 0 8 18
8 40 0 86 -110 157 -317 203 -57 12 -63 12 -77 -5z"/>
<path d="M2155 2220 c-31 -4 29 -8 155 -9 113 -2 219 -5 235 -7 29 -5 29 -4
10 10 -16 12 -51 15 -185 14 -91 -1 -187 -4 -215 -8z"/>
<path d="M3657 2045 c-49 -13 -91 -26 -94 -29 -17 -17 14 -17 74 -1 38 9 80
20 96 22 15 3 27 10 27 15 0 5 5 6 10 3 6 -3 10 -1 10 4 0 15 -22 13 -123 -14z"/>
<path d="M3730 2000 c-36 -10 -84 -23 -107 -29 -47 -13 -61 -38 -15 -27 116
28 181 50 186 62 3 8 4 14 3 13 -1 0 -31 -9 -67 -19z"/>
<path d="M2600 1959 c0 -4 21 -20 48 -35 26 -15 82 -52 124 -81 76 -53 107
-62 153 -44 16 7 8 15 -55 58 -133 89 -184 114 -229 112 -23 -2 -41 -6 -41
-10z"/>
<path d="M121 1813 c11 -21 26 -61 35 -90 26 -89 94 -165 159 -177 l30 -6 -30
11 c-63 24 -138 102 -118 123 4 3 2 6 -4 6 -6 0 -16 21 -23 48 -14 51 -49 122
-61 122 -4 0 2 -17 12 -37z"/>
<path d="M1240 1808 c0 -15 -5 -29 -10 -31 -6 -3 -5 -4 2 -3 21 4 34 34 20 48
-9 9 -12 7 -12 -14z"/>
<path d="M1848 1743 c7 -3 16 -2 19 1 4 3 -2 6 -13 5 -11 0 -14 -3 -6 -6z"/>
<path d="M2050 1725 c-7 -8 -21 -15 -32 -15 -10 0 -16 -4 -13 -10 11 -17 32
-11 49 15 18 28 16 34 -4 10z"/>
<path d="M2141 1714 c-12 -15 -21 -30 -21 -35 0 -4 -10 -10 -22 -12 -13 -2 1
-5 30 -6 45 -1 52 -4 52 -21 0 -11 4 -20 10 -20 5 0 7 7 4 15 -4 8 6 31 21 51
25 33 26 35 6 24 -12 -6 -26 -21 -31 -33 -7 -18 -9 -19 -14 -6 -4 9 -5 28 -2
42 6 34 -7 34 -33 1z"/>
<path d="M2275 1640 c27 -12 43 -12 25 0 -8 5 -22 9 -30 9 -10 0 -8 -3 5 -9z"/>
<path d="M2350 1616 c19 -7 39 -10 45 -7 11 6 -29 19 -60 19 -11 1 -5 -5 15
-12z"/>
<path d="M2495 1580 c28 -12 47 -12 40 0 -3 6 -18 10 -33 9 -24 0 -25 -1 -7
-9z"/>
<path d="M2650 1541 c8 -5 31 -11 50 -15 l35 -6 -30 15 c-33 16 -82 21 -55 6z"/>
<path d="M368 1533 c7 -3 16 -2 19 1 4 3 -2 6 -13 5 -11 0 -14 -3 -6 -6z"/>
<path d="M2741 1516 c2 -2 24 -6 49 -10 31 -4 40 -3 30 4 -13 9 -89 15 -79 6z"/>
<path d="M3024 1445 c11 -8 29 -15 40 -15 26 0 16 9 -25 20 -31 9 -32 8 -15
-5z"/>
<path d="M3220 1400 c0 -5 5 -10 11 -10 5 0 7 5 4 10 -3 6 -8 10 -11 10 -2 0
-4 -4 -4 -10z"/>
<path d="M3290 1380 c8 -5 29 -9 45 -9 29 1 29 1 5 9 -14 4 -34 8 -45 9 -16 1
-17 -1 -5 -9z"/>
<path d="M3526 1321 c6 -6 28 -14 50 -16 35 -4 36 -4 9 4 -16 5 -39 12 -50 16
-15 6 -17 5 -9 -4z"/>
<path d="M3764 1263 c21 -3 49 -11 62 -20 13 -8 52 -17 86 -19 l63 -3 -67 14
c-37 8 -77 19 -87 25 -11 5 -37 9 -58 8 l-38 -1 39 -4z"/>
<path d="M3990 1200 c8 -5 22 -10 30 -10 13 0 13 1 0 10 -8 5 -22 10 -30 10
-13 0 -13 -1 0 -10z"/>
<path d="M4205 1169 c-9 -13 -8 -14 40 -26 22 -6 49 -14 60 -19 19 -7 19 -7 3
9 -9 9 -22 17 -28 17 -6 0 -24 7 -40 15 -20 10 -31 12 -35 4z"/>
<path d="M4434 1125 c4 -12 -3 -15 -32 -16 l-37 -2 40 -7 c22 -4 49 -11 59
-15 15 -6 17 -5 11 5 -5 9 0 7 16 -3 13 -9 37 -17 54 -17 16 0 50 -10 75 -22
25 -11 56 -20 69 -19 14 0 47 -7 75 -18 28 -10 71 -22 96 -26 25 -4 58 -14 73
-22 28 -14 99 -30 162 -37 17 -2 44 -9 60 -16 30 -13 89 -27 155 -36 37 -6
100 -34 100 -45 0 -3 11 -4 25 -1 15 2 25 0 25 -8 0 -6 8 -10 17 -8 9 2 16 6
15 11 -1 4 5 23 13 43 8 20 15 38 15 40 0 2 -24 4 -52 4 -29 1 -73 5 -98 11
-25 6 -63 14 -85 18 -22 4 -69 17 -105 28 -36 12 -99 27 -140 33 -41 6 -97 18
-125 26 -27 8 -66 17 -85 20 -19 3 -44 9 -55 14 -11 5 -33 11 -50 13 -99 16
-248 48 -264 57 -27 14 -34 13 -27 -5z"/>
</g>
</svg>
