<?xml version="1.0" encoding="UTF-8"?>
<svg version="1.1" xmlns="http://www.w3.org/2000/svg" width="640" height="359">
<path d="M0 0 C211.2 0 422.4 0 640 0 C640 118.47 640 236.94 640 359 C428.8 359 217.6 359 0 359 C0 240.53 0 122.06 0 0 Z " fill="#F0F0F0" transform="translate(0,0)"/>
<path d="M0 0 C1.69690979 -0.00934319 1.69690979 -0.00934319 3.42810059 -0.01887512 C4.65001099 -0.00966537 5.87192139 -0.00045563 7.13085938 0.0090332 C8.38467407 0.0085347 9.63848877 0.00803619 10.93029785 0.00752258 C13.58356317 0.00986511 16.23603299 0.01803042 18.88916016 0.03613281 C22.28891005 0.05882019 25.68821557 0.0593637 29.08802032 0.05261517 C32.33150015 0.04846916 35.57490112 0.06044813 38.81835938 0.0715332 C40.04026978 0.0706218 41.26218018 0.06971039 42.52111816 0.06877136 C43.65239136 0.07830338 44.78366455 0.08783539 45.94921875 0.09765625 C46.94610718 0.10226364 47.94299561 0.10687103 48.97009277 0.11161804 C51.47460938 0.37231445 51.47460938 0.37231445 54.47460938 2.37231445 C54.84570312 4.7277832 54.84570312 4.7277832 54.91210938 7.55981445 C55.239037 12.98254868 56.56123027 15.86127583 59.47460938 20.37231445 C59.47460938 21.36231445 59.47460938 22.35231445 59.47460938 23.37231445 C60.13460937 23.37231445 60.79460937 23.37231445 61.47460938 23.37231445 C61.73564453 23.87980225 61.99667969 24.38729004 62.265625 24.91015625 C67.13675249 34.35063166 72.05631315 43.6556049 77.78320312 52.6105957 C82.47460938 60.27069782 82.47460938 60.27069782 82.47460938 63.37231445 C83.22742188 63.19055664 83.98023438 63.00879883 84.75585938 62.8215332 C91.07763478 61.32548199 97.41135713 59.9299844 103.78710938 58.68481445 C105.06199219 58.43344727 106.336875 58.18208008 107.65039062 57.9230957 C111.71570823 57.33759031 115.37603769 57.20694133 119.47460938 57.37231445 C120.47460938 58.37231445 120.47460938 58.37231445 120.53710938 61.43481445 C120.51648438 62.40418945 120.49585938 63.37356445 120.47460938 64.37231445 C113.50080261 66.62140979 106.55690052 68.25906036 99.34960938 69.55981445 C98.393125 69.73706055 97.43664062 69.91430664 96.45117188 70.09692383 C94.12651005 70.52698626 91.8010567 70.9520385 89.47460938 71.37231445 C89.47460938 74.78518345 90.11547917 75.6719404 91.97460938 78.43481445 C94.47460938 82.16398112 94.47460938 82.16398112 94.47460938 84.37231445 C95.67085937 84.23954102 96.86710938 84.10676758 98.09960938 83.9699707 C107.88760383 82.97032558 117.6161318 82.31045297 127.45117188 82.12231445 C128.32433044 82.10510849 129.19748901 82.08790253 130.09710693 82.07017517 C134.48859071 81.98837953 138.87940545 81.92740291 143.27148438 81.89013672 C158.27942235 81.80589448 158.27942235 81.80589448 172.47460938 77.37231445 C167.30593603 73.75072701 162.37833044 70.63331401 156.47460938 68.37231445 C156.47460938 67.71231445 156.47460938 67.05231445 156.47460938 66.37231445 C161.52877417 63.39011769 166.78123417 63.67987693 172.47460938 64.37231445 C177.19530588 65.98661258 181.17253689 68.0330399 184.66210938 71.62231445 C186.47354208 73.72045396 186.47354208 73.72045396 189.91210938 73.80981445 C194.35235959 74.51090659 195.72397208 75.89356729 198.47460938 79.37231445 C198.81688355 80.70338067 199.15212681 82.03631525 199.47460938 83.37231445 C202.35933526 85.17930158 204.61331721 85.57837353 207.97460938 85.68481445 C218.56077864 86.58775242 231.06417938 92.33182303 238.09960938 100.37231445 C239.60131706 103.64876759 239.81387284 105.81004804 239.47460938 109.37231445 C235.98366806 110.60486172 235.98366806 110.60486172 233.75585938 109.5871582 C233.16804688 109.16563477 232.58023437 108.74411133 231.97460938 108.30981445 C228.64691547 106.05636682 225.30905853 104.31097963 221.66210938 102.62231445 C216.0061329 99.8767644 211.53643248 96.39152337 206.84960938 92.2277832 C204.59634183 90.46741794 203.26342126 89.76610502 200.47460938 89.37231445 C200.20648438 90.32106445 199.93835938 91.26981445 199.66210938 92.24731445 C198.47460938 95.37231445 198.47460938 95.37231445 195.47460938 97.37231445 C190.54305951 98.82752589 186.61663659 99.37231445 181.47460938 99.37231445 C180.81460937 100.03231445 180.15460938 100.69231445 179.47460938 101.37231445 C177.23251253 101.79198899 174.98047852 102.15941 172.72460938 102.49731445 C167.70618571 103.36019352 167.70618571 103.36019352 163.67382812 106.16918945 C162.82874639 107.56108879 161.99676554 108.96102238 161.17773438 110.3684082 C157.57832121 114.60349755 151.59621773 115.66511167 146.47460938 117.37231445 C146.14460938 117.70231445 145.81460937 118.03231445 145.47460938 118.37231445 C146.09392334 118.56865479 146.7132373 118.76499512 147.35131836 118.96728516 C150.2051307 119.87245091 153.05862134 120.77862688 155.91210938 121.68481445 C156.88599609 121.99354492 157.85988281 122.30227539 158.86328125 122.62036133 C164.05526688 124.26998887 169.23530996 125.94794945 174.3996582 127.68212891 C176.39100075 128.34450394 178.38789543 128.98518037 180.38867188 129.6184082 C191.62173327 133.22481212 191.62173327 133.22481212 195.59960938 135.68481445 C198.66698388 137.48522992 200.00326678 137.92042118 203.47460938 137.37231445 C204.22105713 137.06422852 204.96750488 136.75614258 205.73657227 136.4387207 C208.69280218 135.28733307 211.55654034 134.59820158 214.65820312 133.93481445 C215.83318359 133.67958008 217.00816406 133.4243457 218.21875 133.16137695 C219.43755859 132.90098633 220.65636719 132.6405957 221.91210938 132.37231445 C224.32812413 131.85450546 226.74351369 131.33376898 229.15820312 130.80981445 C230.22611084 130.58165039 231.29401855 130.35348633 232.39428711 130.1184082 C235.49280559 129.36790709 238.45625342 128.39309877 241.47460938 127.37231445 C244.31669014 126.99500373 246.57037305 127.13029476 249.47460938 127.37231445 C251.47460938 130.37231445 251.47460938 130.37231445 251.09960938 133.05981445 C250.79023437 134.20450195 250.79023437 134.20450195 250.47460938 135.37231445 C247.47840509 136.36335968 244.47707069 137.33790661 241.47460938 138.30981445 C240.63542969 138.58760742 239.79625 138.86540039 238.93164062 139.15161133 C233.75044696 140.81842944 228.89698351 141.87651867 223.47460938 142.37231445 C223.47460938 143.03231445 223.47460938 143.69231445 223.47460938 144.37231445 C224.36792969 144.44450195 225.26125 144.51668945 226.18164062 144.59106445 C232.09247737 145.43610731 237.59651702 147.79526497 243.16210938 149.87231445 C245.39457267 150.69688351 247.62762187 151.51986846 249.86132812 152.34106445 C251.33412231 152.88923828 251.33412231 152.88923828 252.83666992 153.44848633 C255.38810079 154.40155995 255.38810079 154.40155995 257.76293945 154.87426758 C258.32779053 155.03862305 258.8926416 155.20297852 259.47460938 155.37231445 C259.80460937 156.03231445 260.13460938 156.69231445 260.47460938 157.37231445 C262.55517095 157.95490355 262.55517095 157.95490355 265.03710938 158.30981445 C269.04885915 159.03715719 272.58419346 160.07938219 276.35742188 161.5871582 C281.57546627 163.52226323 287.05640701 164.76220295 292.44726562 166.12231445 C297.34009957 167.3866807 301.14961164 168.72926028 305.47460938 171.37231445 C307.80712449 171.71132597 310.14061852 172.04361665 312.47460938 172.37231445 C315.14227082 172.98300778 317.7755404 173.70257793 320.41210938 174.43481445 C321.09595703 174.62108398 321.77980469 174.80735352 322.484375 174.99926758 C324.14881231 175.45320503 325.8118625 175.91222362 327.47460938 176.37231445 C327.47460938 177.03231445 327.47460938 177.69231445 327.47460938 178.37231445 C328.08046875 178.48188477 328.68632812 178.59145508 329.31054688 178.7043457 C336.26766786 180.02084706 343.18018116 181.58482361 349.73632812 184.3137207 C354.13469027 186.0140861 358.69093637 187.1846639 363.23632812 188.42895508 C367.44390164 189.62420384 370.71485674 191.10000604 374.47460938 193.37231445 C377.29570667 194.00449312 380.08619952 194.37055096 382.95117188 194.74731445 C385.76392836 195.44397241 386.54313133 196.31802566 388.47460938 198.37231445 C389.46460938 198.37231445 390.45460938 198.37231445 391.47460938 198.37231445 C395.48834217 198.77368773 398.92272594 199.87487274 402.66210938 201.30981445 C406.5045671 202.76639829 410.10228975 203.74642559 414.16210938 204.37231445 C419.24877605 205.17624166 423.00412103 206.84184935 427.47460938 209.37231445 C427.47460938 210.03231445 427.47460938 210.69231445 427.47460938 211.37231445 C428.11398437 211.16606445 428.75335937 210.95981445 429.41210938 210.74731445 C433.68713596 210.22384181 437.34806884 211.28449004 441.47460938 212.37231445 C441.47460938 213.03231445 441.47460938 213.69231445 441.47460938 214.37231445 C442.085625 214.43547852 442.69664062 214.49864258 443.32617188 214.5637207 C455.85038335 216.23949548 468.06474468 220.50581042 479.83007812 225.02075195 C485.60800289 227.16347647 491.17483995 228.44650056 497.34960938 228.24731445 C500.47460938 228.37231445 500.47460938 228.37231445 502.70385742 230.02172852 C504.47460938 232.37231445 504.47460938 232.37231445 504.54418945 235.03540039 C504.34204834 236.04892578 504.13990723 237.06245117 503.93164062 238.10668945 C503.7120166 239.25975586 503.49239258 240.41282227 503.26611328 241.60083008 C503.00491699 242.84541992 502.7437207 244.09000977 502.47460938 245.37231445 C502.22501465 246.66331055 501.97541992 247.95430664 501.71826172 249.28442383 C501.05271308 252.70831626 500.34051163 256.12044407 499.60766602 259.53051758 C499.30939885 260.93082061 499.01778013 262.33255549 498.73266602 263.7355957 C494.73170646 283.41858215 494.73170646 283.41858215 488.25219727 287.91430664 C485.05374016 289.59323657 481.7882911 291.02987995 478.45117188 292.40356445 C477.45457047 292.81934753 477.45457047 292.81934753 476.43783569 293.24353027 C474.32659175 294.12344494 472.21318393 294.99801488 470.09960938 295.87231445 C467.99370223 296.74784196 465.88824752 297.62445117 463.7828064 298.50109863 C462.47754465 299.04409131 461.17192489 299.58622452 459.86587524 300.12731934 C456.1925401 301.64857198 456.1925401 301.64857198 452.54240417 303.22431946 C447.69290949 305.36191921 447.69290949 305.36191921 445.25976562 305.4777832 C442.32752138 303.66197331 441.29599919 300.71899379 439.91210938 297.68481445 C439.22033288 296.23384898 438.5275668 294.78335503 437.83398438 293.33325195 C437.46080078 292.54273438 437.08761719 291.7522168 436.703125 290.93774414 C434.43035587 286.19166743 432.03406398 281.50687511 429.66210938 276.80981445 C421.47460938 260.5912635 421.47460938 260.5912635 421.47460938 256.37231445 C420.85484222 256.27139999 420.23507507 256.17048553 419.5965271 256.06651306 C411.43733394 254.66738986 403.46362386 252.68951549 395.45117188 250.6262207 C393.99733029 250.25496477 392.54338896 249.88409923 391.08935547 249.51359558 C388.01522999 248.72970162 384.94163801 247.94376413 381.86846924 247.15612793 C373.84384423 245.09991683 365.81540529 243.05866742 357.78710938 241.0168457 C356.99221729 240.81457241 356.19732521 240.61229912 355.37834549 240.40389633 C341.63555413 236.90762859 327.87821255 233.47499836 314.09960938 230.12231445 C313.19739655 229.90259979 312.29518372 229.68288513 311.3656311 229.45651245 C302.06245302 227.19294042 292.75249959 224.95920032 283.43725586 222.74584961 C281.87793335 222.37532471 281.87793335 222.37532471 280.28710938 221.99731445 C278.83123413 221.65192627 278.83123413 221.65192627 277.34594727 221.29956055 C270.80625184 219.73299336 264.33547059 217.97853256 257.87133789 216.12695312 C251.93964678 214.4474533 245.95932649 213.10991205 239.93286133 211.81884766 C235.47187987 210.85156409 231.10274568 209.73783121 226.72460938 208.43481445 C220.73235995 206.66216526 214.69742513 205.23561775 208.59960938 203.87231445 C196.50974016 201.16848692 184.51996035 198.24978989 172.59960938 194.87231445 C165.7978113 192.94764993 158.97047707 191.30965421 152.0625 189.81494141 C145.3443171 188.35967383 138.68109527 186.7124168 132.01953125 185.01879883 C126.46491055 183.60776318 120.90750464 182.20788673 115.34960938 180.80981445 C114.19412598 180.51679443 113.03864258 180.22377441 111.84814453 179.921875 C106.22377571 178.507609 100.59863197 177.16727585 94.92089844 175.98388672 C87.70668024 174.44752599 80.55584114 172.70679789 73.40429688 170.90356445 C72.1078915 170.57852569 70.81143231 170.25370148 69.5149231 169.92907715 C66.14243433 169.08407198 62.77066094 168.23624776 59.39904785 167.38775635 C55.9910707 166.5306366 52.58242425 165.67618742 49.17382812 164.8215332 C44.15637219 163.56322092 39.13929167 162.30342841 34.12255859 161.04223633 C33.01410583 160.765103 31.90565308 160.48796967 30.76361084 160.20243835 C28.53917547 159.64100444 26.31740194 159.06893424 24.09820557 158.48713684 C22.50392731 158.07318916 22.50392731 158.07318916 20.87744141 157.65087891 C19.93756378 157.4028804 18.99768616 157.1548819 18.02932739 156.89936829 C14.2199091 156.11346217 11.31808466 156.4312461 7.47460938 157.05981445 C6.80018799 157.16285889 6.1257666 157.26590332 5.4309082 157.37207031 C3.44157513 157.68136508 1.45786599 158.02618943 -0.52539062 158.37231445 C-1.61464844 158.55536133 -2.70390625 158.7384082 -3.82617188 158.92700195 C-5.80530529 159.26070798 -7.78323638 159.60164017 -9.75976562 159.95043945 C-12.38348751 160.35066822 -14.93972588 160.53859677 -17.58789062 160.68481445 C-23.0424885 161.11670343 -28.18741681 162.42294515 -33.46289062 163.80981445 C-34.29248291 164.02742432 -35.1220752 164.24503418 -35.97680664 164.46923828 C-41.54124976 165.98164289 -45.8112494 167.80099293 -50.46289062 171.24731445 C-56.09167625 175.03361706 -62.00988937 176.68144043 -68.52539062 178.37231445 C-70.12447266 178.8228418 -70.12447266 178.8228418 -71.75585938 179.2824707 C-82.52767069 182.10334699 -93.45897584 183.67133093 -103.45898438 177.87231445 C-106.51985272 175.65043648 -108.45378933 173.54876977 -110.52539062 170.37231445 C-110.52539062 169.38231445 -110.52539062 168.39231445 -110.52539062 167.37231445 C-111.51539063 167.37231445 -112.50539063 167.37231445 -113.52539062 167.37231445 C-116.99814779 164.55069926 -118.92545153 161.5321561 -120.52539062 157.37231445 C-121.16100149 151.22807613 -119.80737413 146.17618325 -118.15820312 140.26293945 C-117.56971966 137.57480509 -117.55142918 135.80826014 -117.90039062 133.12231445 C-117.39187547 128.03716292 -115.21850165 126.4824681 -111.47070312 123.23168945 C-103.92697552 118.46933622 -95.56231314 116.42866152 -86.90039062 114.68481445 C-85.847146 114.46768799 -84.79390137 114.25056152 -83.70874023 114.02685547 C-76.52921049 112.60872416 -69.67376169 111.93009524 -62.36132812 111.68481445 C-56.40228268 111.1993525 -50.74727568 109.71240306 -44.97460938 108.2121582 C-41.52539063 107.37231445 -41.52539063 107.37231445 -38.52539062 107.37231445 C-37.89566416 104.93594556 -37.27040853 102.49866073 -36.65039062 100.05981445 C-36.46549072 99.3330249 -36.28059082 98.60623535 -36.09008789 97.85742188 C-35.03806615 93.64979939 -34.14980203 89.47067195 -33.46289062 85.18481445 C-32.8117261 81.3010832 -31.80413333 78.64181486 -29.52539062 75.37231445 C-28.82959608 73.18100911 -28.82959608 73.18100911 -28.52539062 71.37231445 C-27.86539063 71.37231445 -27.20539063 71.37231445 -26.52539062 71.37231445 C-26.42226562 70.21731445 -26.31914063 69.06231445 -26.21289062 67.87231445 C-25.88469488 64.19652211 -24.69056387 61.05209031 -23.36108398 57.62475586 C-21.86143384 53.58275404 -20.68091343 49.44361563 -19.46289062 45.30981445 C-19.20701172 44.4506543 -18.95113281 43.59149414 -18.6875 42.70629883 C-17.57047649 38.94747165 -16.4685505 35.18549007 -15.40429688 31.41137695 C-14.60057371 28.63228087 -13.62211677 26.04558444 -12.52539062 23.37231445 C-11.83280834 21.38114037 -11.16791427 19.38020086 -10.52539062 17.37231445 C-9.96851562 15.67075195 -9.96851562 15.67075195 -9.40039062 13.93481445 C-8.36610342 10.3765821 -8.36610342 10.3765821 -8.58789062 6.62231445 C-8.52539062 3.37231445 -8.52539062 3.37231445 -7.36682129 1.69245911 C-4.83237703 -0.12451565 -3.10456213 -0.00196019 0 0 Z " fill="#9DA1A9" transform="translate(128.525390625,24.627685546875)"/>
<path d="M0 0 C1.69690979 -0.00934319 1.69690979 -0.00934319 3.42810059 -0.01887512 C4.65001099 -0.00966537 5.87192139 -0.00045563 7.13085938 0.0090332 C8.38467407 0.0085347 9.63848877 0.00803619 10.93029785 0.00752258 C13.58356317 0.00986511 16.23603299 0.01803042 18.88916016 0.03613281 C22.28891005 0.05882019 25.68821557 0.0593637 29.08802032 0.05261517 C32.33150015 0.04846916 35.57490112 0.06044813 38.81835938 0.0715332 C40.04026978 0.0706218 41.26218018 0.06971039 42.52111816 0.06877136 C43.65239136 0.07830338 44.78366455 0.08783539 45.94921875 0.09765625 C46.94610718 0.10226364 47.94299561 0.10687103 48.97009277 0.11161804 C51.47460938 0.37231445 51.47460938 0.37231445 54.47460938 2.37231445 C54.84570312 4.7277832 54.84570312 4.7277832 54.91210938 7.55981445 C55.239037 12.98254868 56.56123027 15.86127583 59.47460938 20.37231445 C59.47460938 21.36231445 59.47460938 22.35231445 59.47460938 23.37231445 C60.13460937 23.37231445 60.79460937 23.37231445 61.47460938 23.37231445 C61.73564453 23.87980225 61.99667969 24.38729004 62.265625 24.91015625 C67.13675249 34.35063166 72.05631315 43.6556049 77.78320312 52.6105957 C82.47460938 60.27069782 82.47460938 60.27069782 82.47460938 63.37231445 C83.22742188 63.19055664 83.98023438 63.00879883 84.75585938 62.8215332 C91.07763478 61.32548199 97.41135713 59.9299844 103.78710938 58.68481445 C105.06199219 58.43344727 106.336875 58.18208008 107.65039062 57.9230957 C111.71570823 57.33759031 115.37603769 57.20694133 119.47460938 57.37231445 C120.47460938 58.37231445 120.47460938 58.37231445 120.53710938 61.43481445 C120.51648438 62.40418945 120.49585938 63.37356445 120.47460938 64.37231445 C113.50080261 66.62140979 106.55690052 68.25906036 99.34960938 69.55981445 C98.393125 69.73706055 97.43664062 69.91430664 96.45117188 70.09692383 C94.12651005 70.52698626 91.8010567 70.9520385 89.47460938 71.37231445 C89.47460938 74.78518345 90.11547917 75.6719404 91.97460938 78.43481445 C94.47460938 82.16398112 94.47460938 82.16398112 94.47460938 84.37231445 C93.69786865 84.46730225 92.92112793 84.56229004 92.12084961 84.66015625 C55.34911724 89.05331149 55.34911724 89.05331149 19.11132812 96.47387695 C15.35356596 97.40221777 11.58971474 98.15133117 7.78710938 98.87231445 C2.69982783 99.87996658 -2.32195133 100.997089 -7.33789062 102.30981445 C-9.04912109 102.75647461 -9.04912109 102.75647461 -10.79492188 103.2121582 C-13.64525014 104.1235981 -13.64525014 104.1235981 -14.91210938 106.5012207 C-15.11449219 107.11868164 -15.316875 107.73614258 -15.52539062 108.37231445 C-16.5128125 108.33235352 -17.50023437 108.29239258 -18.51757812 108.2512207 C-22.76738464 108.25229011 -26.57108828 109.19552487 -30.65039062 110.30981445 C-37.54009418 112.13204446 -43.62752789 113.49946615 -50.79492188 113.4699707 C-51.47592453 113.46855576 -52.15692719 113.46714081 -52.85856628 113.46568298 C-55.0183871 113.46011743 -57.17810152 113.44757148 -59.33789062 113.43481445 C-60.80859225 113.42979499 -62.2792955 113.42523287 -63.75 113.42114258 C-67.34183103 113.41015933 -70.93360043 113.39291867 -74.52539062 113.37231445 C-74.52539062 113.04231445 -74.52539062 112.71231445 -74.52539062 112.37231445 C-73.56761719 112.3465332 -72.60984375 112.32075195 -71.62304688 112.29418945 C-62.39886528 111.93738852 -53.90421304 110.53153578 -44.97460938 108.2121582 C-41.52539063 107.37231445 -41.52539063 107.37231445 -38.52539062 107.37231445 C-37.89566416 104.93594556 -37.27040853 102.49866073 -36.65039062 100.05981445 C-36.37304077 98.96963013 -36.37304077 98.96963013 -36.09008789 97.85742188 C-35.03806615 93.64979939 -34.14980203 89.47067195 -33.46289062 85.18481445 C-32.8117261 81.3010832 -31.80413333 78.64181486 -29.52539062 75.37231445 C-28.82959608 73.18100911 -28.82959608 73.18100911 -28.52539062 71.37231445 C-27.86539063 71.37231445 -27.20539063 71.37231445 -26.52539062 71.37231445 C-26.42226562 70.21731445 -26.31914063 69.06231445 -26.21289062 67.87231445 C-25.88469488 64.19652211 -24.69056387 61.05209031 -23.36108398 57.62475586 C-21.86143384 53.58275404 -20.68091343 49.44361563 -19.46289062 45.30981445 C-19.20701172 44.4506543 -18.95113281 43.59149414 -18.6875 42.70629883 C-17.57047649 38.94747165 -16.4685505 35.18549007 -15.40429688 31.41137695 C-14.60057371 28.63228087 -13.62211677 26.04558444 -12.52539062 23.37231445 C-11.83280834 21.38114037 -11.16791427 19.38020086 -10.52539062 17.37231445 C-9.96851562 15.67075195 -9.96851562 15.67075195 -9.40039062 13.93481445 C-8.36610342 10.3765821 -8.36610342 10.3765821 -8.58789062 6.62231445 C-8.52539062 3.37231445 -8.52539062 3.37231445 -7.36682129 1.69245911 C-4.83237703 -0.12451565 -3.10456213 -0.00196019 0 0 Z " fill="#B1B5B9" transform="translate(128.525390625,24.627685546875)"/>
<path d="M0 0 C2.3125 1.3125 2.3125 1.3125 4 3 C4 3.99 4 4.98 4 6 C3.01 6.33 2.02 6.66 1 7 C2.65 7.66 4.3 8.32 6 9 C5.67 10.32 5.34 11.64 5 13 C1.04 13.99 -2.92 14.98 -7 16 C-7 16.66 -7 17.32 -7 18 C-9.64 18.66 -12.28 19.32 -15 20 C-14.79503906 20.71285156 -14.59007813 21.42570312 -14.37890625 22.16015625 C-11.62883252 31.93673416 -8.92699375 42.91141518 -11.8125 53 C-14.75879805 57.04063733 -17.53160939 57.42613578 -22.30859375 58.39453125 C-26.57337046 59.35395127 -29.4657546 61.30284314 -32.9375 63.875 C-38.56628562 67.6613026 -44.48449875 69.30912597 -51 71 C-52.59908203 71.45052734 -52.59908203 71.45052734 -54.23046875 71.91015625 C-65.00228007 74.73103254 -75.93358522 76.29901648 -85.93359375 70.5 C-88.9944621 68.27812203 -90.9283987 66.17645532 -93 63 C-93 62.01 -93 61.02 -93 60 C-93.99 60 -94.98 60 -96 60 C-99.47275716 57.17838481 -101.4000609 54.15984165 -103 50 C-103.63561086 43.85576168 -102.28198351 38.8038688 -100.6328125 32.890625 C-100.04432903 30.20249064 -100.02603855 28.43594569 -100.375 25.75 C-99.93803083 21.3803083 -99.21651409 20.69018123 -96.125 17.75 C-91.32669332 13.95874534 -86.85963681 11.68389047 -81 10 C-79.8140625 9.64035156 -78.628125 9.28070313 -77.40625 8.91015625 C-65.5428281 5.71729511 -53.74179 5.63364306 -41.54867554 5.46743774 C-28.09334302 5.27131404 -12.63356195 -1.23254263 0 0 Z " fill="#898E95" transform="translate(111,132)"/>
<path d="M0 0 C3.61564196 1.74344753 6.51228405 3.38127342 9.3203125 6.26953125 C11.1317452 8.36767076 11.1317452 8.36767076 14.5703125 8.45703125 C19.01056271 9.15812339 20.38217521 10.54078408 23.1328125 14.01953125 C23.47508667 15.35059747 23.81032993 16.68353204 24.1328125 18.01953125 C27.01753838 19.82651838 29.27152034 20.22559033 32.6328125 20.33203125 C43.21898177 21.23496922 55.72238251 26.97903983 62.7578125 35.01953125 C64.25952019 38.29598439 64.47207597 40.45726484 64.1328125 44.01953125 C60.64187118 45.25207851 60.64187118 45.25207851 58.4140625 44.234375 C57.82625 43.81285156 57.2384375 43.39132813 56.6328125 42.95703125 C53.30511859 40.70358361 49.96726166 38.95819642 46.3203125 37.26953125 C40.66433602 34.5239812 36.1946356 31.03874017 31.5078125 26.875 C29.25454496 25.11463473 27.92162439 24.41332182 25.1328125 24.01953125 C24.8646875 24.96828125 24.5965625 25.91703125 24.3203125 26.89453125 C23.1328125 30.01953125 23.1328125 30.01953125 20.1328125 32.01953125 C15.20126264 33.47474269 11.27483972 34.01953125 6.1328125 34.01953125 C5.1428125 35.00953125 5.1428125 35.00953125 4.1328125 36.01953125 C1.89071565 36.43920579 -0.36131836 36.8066268 -2.6171875 37.14453125 C-7.70455671 38.05759561 -7.70455671 38.05759561 -11.84375 40.88671875 C-12.7625029 42.28794525 -13.65432735 43.70727381 -14.515625 45.14453125 C-16.84900787 48.38159419 -20.06071842 49.27959638 -23.8671875 50.01953125 C-25.86680314 50.0587394 -27.86768114 50.06396472 -29.8671875 50.01953125 C-30.61097656 50.385625 -31.35476563 50.75171875 -32.12109375 51.12890625 C-35.86161999 52.34204989 -37.93140943 51.45369148 -41.6171875 50.20703125 C-42.76703125 49.82933594 -43.916875 49.45164063 -45.1015625 49.0625 C-47.8671875 48.01953125 -47.8671875 48.01953125 -48.8671875 47.01953125 C-48.57988695 44.68008389 -48.24781971 42.34561695 -47.8671875 40.01953125 C-49.8471875 40.01953125 -51.8271875 40.01953125 -53.8671875 40.01953125 C-54.1971875 41.33953125 -54.5271875 42.65953125 -54.8671875 44.01953125 C-72.3571875 44.01953125 -89.8471875 44.01953125 -107.8671875 44.01953125 C-108.1971875 42.36953125 -108.5271875 40.71953125 -108.8671875 39.01953125 C-120.20371548 39.45994511 -131.24306213 41.47740364 -142.39135742 43.45800781 C-145.58454521 44.0248313 -148.77939348 44.58145332 -151.97460938 45.13671875 C-154.00531173 45.4929006 -156.03591458 45.8496503 -158.06640625 46.20703125 C-159.02149582 46.37372314 -159.97658539 46.54041504 -160.96061707 46.7121582 C-161.8394606 46.869021 -162.71830414 47.02588379 -163.6237793 47.1875 C-164.39731247 47.32438232 -165.17084564 47.46126465 -165.96781921 47.60229492 C-167.94129434 47.95454523 -167.94129434 47.95454523 -169.8671875 49.01953125 C-176.18174195 50.08814816 -180.24106618 49.22972523 -185.4921875 45.51953125 C-186.9680743 44.37515133 -188.43297479 43.21572568 -189.8671875 42.01953125 C-189.5371875 40.69953125 -189.2071875 39.37953125 -188.8671875 38.01953125 C-175.68627714 34.24599466 -162.54056462 30.9577914 -149.06298828 28.43994141 C-145.98673496 27.85095895 -142.92944721 27.1769854 -139.8671875 26.51953125 C-127.96260078 24.13600896 -115.89366757 22.6443325 -103.8671875 21.01953125 C-103.05491699 20.90722168 -102.24264648 20.79491211 -101.40576172 20.67919922 C-83.57701131 18.23503511 -65.54291195 17.12317031 -47.55859375 16.77734375 C-46.67405014 16.75964432 -45.78950653 16.74194489 -44.87815857 16.72370911 C-40.50587878 16.63968559 -36.13439784 16.57443031 -31.76147461 16.53686523 C-16.91008705 16.42856514 -16.91008705 16.42856514 -2.8671875 12.01953125 C-8.03586085 8.3979438 -12.96346643 5.28053081 -18.8671875 3.01953125 C-18.8671875 2.35953125 -18.8671875 1.69953125 -18.8671875 1.01953125 C-13.16730934 -2.343667 -6.14912567 -2.10276641 0 0 Z " fill="#A6AAB1" transform="translate(303.8671875,89.98046875)"/>
<path d="M0 0 C2.3125 1.3125 2.3125 1.3125 4 3 C4 3.99 4 4.98 4 6 C3.01 6.33 2.02 6.66 1 7 C2.65 7.66 4.3 8.32 6 9 C5.67 10.32 5.34 11.64 5 13 C1.04 13.99 -2.92 14.98 -7 16 C-7 16.66 -7 17.32 -7 18 C-9.64 18.66 -12.28 19.32 -15 20 C-14.79503906 20.71285156 -14.59007813 21.42570312 -14.37890625 22.16015625 C-11.62497272 31.95045582 -8.88505268 42.97669178 -11.875 53.0625 C-14.34807205 56.48115843 -15.20074179 56.61420905 -19.1875 57.4375 C-20.78787457 57.65500441 -22.39169477 57.85214455 -24 58 C-23.835 57.175 -23.67 56.35 -23.5 55.5 C-21.99970388 44.99792719 -24.42265623 35.17599234 -27 25 C-28.84464844 25.2165625 -28.84464844 25.2165625 -30.7265625 25.4375 C-32.35935464 25.62517726 -33.99216829 25.81266737 -35.625 26 C-36.43324219 26.09539062 -37.24148437 26.19078125 -38.07421875 26.2890625 C-42.40973739 26.78253617 -46.62737311 27.11320717 -51 27 C-51 27.66 -51 28.32 -51 29 C-52.05058594 29.17015625 -53.10117187 29.3403125 -54.18359375 29.515625 C-63.27023113 30.93907212 -63.27023113 30.93907212 -71.8125 34.1875 C-76.84800231 36.62403337 -81.51506168 37.27556705 -87 36 C-91.85591996 33.27278701 -96.06673372 29.93326628 -100 26 C-99.8047372 23.07105793 -99.34078044 21.42797752 -97.50390625 19.12109375 C-92.33104323 14.63517028 -87.56276147 11.93956772 -81 10 C-79.21916016 9.45859375 -79.21916016 9.45859375 -77.40234375 8.90625 C-65.5386486 5.72052379 -53.74068069 5.63362793 -41.54867554 5.46743774 C-28.09334302 5.27131404 -12.63356195 -1.23254263 0 0 Z " fill="#383939" transform="translate(111,132)"/>
<path d="M0 0 C1.58167969 -0.02634521 1.58167969 -0.02634521 3.1953125 -0.05322266 C4.1646875 -0.05241699 5.1340625 -0.05161133 6.1328125 -0.05078125 C6.9798877 -0.05376221 7.82696289 -0.05674316 8.69970703 -0.05981445 C11.37645535 0.39832709 12.24895856 1.17339346 13.875 3.3125 C14.4375 5.75 14.4375 5.75 13.875 8.3125 C5.68041745 16.05182796 -8.41489223 15.96508992 -19 16.875 C-27.6272317 17.64765381 -36.17476093 18.57601903 -44.74267578 19.8503418 C-49.04980833 20.43886511 -53.35884996 20.79457109 -57.69042969 21.14892578 C-72.89939301 22.42679006 -87.84711484 24.79796148 -102.875 27.4375 C-103.91479004 27.61943909 -104.95458008 27.80137817 -106.02587891 27.98883057 C-108.99223148 28.51045215 -111.95734674 29.03842833 -114.921875 29.5703125 C-115.82258728 29.73063965 -116.72329956 29.8909668 -117.65130615 30.05615234 C-118.47632629 30.20665039 -119.30134644 30.35714844 -120.15136719 30.51220703 C-120.87362488 30.64305695 -121.59588257 30.77390686 -122.34002686 30.90872192 C-124.21568276 31.25832025 -124.21568276 31.25832025 -126.125 32.3125 C-132.43955445 33.38111691 -136.49887868 32.52269398 -141.75 28.8125 C-143.2258868 27.66812008 -144.69078729 26.50869443 -146.125 25.3125 C-145.795 23.9925 -145.465 22.6725 -145.125 21.3125 C-131.94408964 17.53896341 -118.79837712 14.25076015 -105.32080078 11.73291016 C-102.24454746 11.1439277 -99.18725971 10.46995415 -96.125 9.8125 C-84.22041328 7.42897771 -72.15148007 5.93730125 -60.125 4.3125 C-58.90659424 4.14403564 -58.90659424 4.14403564 -57.66357422 3.97216797 C-38.59724025 1.35834209 -19.23549989 0.17214869 0 0 Z " fill="#424343" transform="translate(260.125,106.6875)"/>
<path d="M0 0 C2.29370226 7.82316305 3.433422 14.84524526 3 23 C1.35 23 -0.3 23 -2 23 C-2 24.32 -2 25.64 -2 27 C-2.66 27 -3.32 27 -4 27 C-4.495 22.545 -4.495 22.545 -5 18 C-8.97718417 18.59026568 -8.97718417 18.59026568 -10.75 21 C-13.55649774 23.49466465 -15.34964373 23.50770301 -19 23.62890625 C-21.12406703 23.84993068 -21.12406703 23.84993068 -22.765625 25.515625 C-25.97452807 27.64741375 -29.0407418 27.32423069 -32.75 27.1875 C-33.44738281 27.17396484 -34.14476562 27.16042969 -34.86328125 27.14648438 C-36.57585541 27.1112945 -38.28802941 27.05749155 -40 27 C-41.54569191 14.09138381 -41.54569191 14.09138381 -39 9 C-35.99382731 5.99382731 -33.17618402 6.40414684 -29 6 C-29 5.34 -29 4.68 -29 4 C-27.68 4 -26.36 4 -25 4 C-25 3.34 -25 2.68 -25 2 C-21.58518736 1.46649143 -18.16796104 0.95041814 -14.75 0.4375 C-13.78191406 0.28603516 -12.81382813 0.13457031 -11.81640625 -0.02148438 C-10.88183594 -0.16005859 -9.94726562 -0.29863281 -8.984375 -0.44140625 C-8.12553711 -0.57232666 -7.26669922 -0.70324707 -6.38183594 -0.83813477 C-3.98957886 -1.0007082 -2.27197422 -0.71976511 0 0 Z " fill="#BABFC6" transform="translate(85,157)"/>
<path d="M0 0 C-4.16319614 2.08159807 -8.06105257 2.34083267 -12.6171875 2.71484375 C-15.32405254 3.03878006 -17.56329797 3.78164898 -20 5 C-19.01 5.99 -18.02 6.98 -17 8 C-22.50832197 10.33686387 -28.12831287 11.88914027 -34 13 C-35.33542939 13.32483418 -36.66961551 13.6550855 -38 14 C-36.68 14.33 -35.36 14.66 -34 15 C-34 15.66 -34 16.32 -34 17 C-35.75 18.6875 -35.75 18.6875 -38 20 C-40.3653338 19.77824996 -41.75730911 19.15601557 -43.75 17.875 C-47.9480837 16.24241189 -52.34760379 17.55667419 -56.5625 18.6875 C-60.14291123 20.61541374 -63.01296798 23.26260466 -66 26 C-61.00857755 31.41925866 -57.20753344 32.99429766 -50 34 C-50 34.66 -50 35.32 -50 36 C-49.113125 36.144375 -48.22625 36.28875 -47.3125 36.4375 C-44.52882354 36.91019978 -41.76516243 37.43070185 -39 38 C-40.703125 39.546875 -40.703125 39.546875 -43 41 C-45.234375 40.890625 -45.234375 40.890625 -47.75 40.25 C-52.75055306 39.15082823 -57.58983044 38.65330153 -62.6875 38.375 C-63.40711914 38.33536133 -64.12673828 38.29572266 -64.86816406 38.25488281 C-66.57850819 38.1646905 -68.28922287 38.08156779 -70 38 C-70 37.34 -70 36.68 -70 36 C-71.485 36.495 -71.485 36.495 -73 37 C-74.23922223 33.28233332 -73.57018942 31.56110463 -72.5625 27.8125 C-72.13130859 26.18248047 -72.13130859 26.18248047 -71.69140625 24.51953125 C-71.46324219 23.68808594 -71.23507813 22.85664063 -71 22 C-73.31 22 -75.62 22 -78 22 C-78 21.34 -78 20.68 -78 20 C-75.09399739 18.74335022 -73.20395416 18 -70 18 C-70 17.34 -70 16.68 -70 16 C-69.14535156 15.74605469 -68.29070312 15.49210937 -67.41015625 15.23046875 C-66.30542969 14.88628906 -65.20070313 14.54210937 -64.0625 14.1875 C-62.96035156 13.85105469 -61.85820313 13.51460937 -60.72265625 13.16796875 C-59.37494141 12.58982422 -59.37494141 12.58982422 -58 12 C-57.67 11.01 -57.34 10.02 -57 9 C-59.97 8.505 -59.97 8.505 -63 8 C-62.67 7.34 -62.34 6.68 -62 6 C-61.01 6 -60.02 6 -59 6 C-59 5.01 -59 4.02 -59 3 C-59.99 2.67 -60.98 2.34 -62 2 C-61.67 1.34 -61.34 0.68 -61 0 C-57.88909096 0.58582053 -56.23096822 1.48474913 -53.875 3.5625 C-49.46826772 6.82744512 -45.2922246 6.72132186 -40 6 C-38.1637079 5.5393566 -36.32792975 5.07648513 -34.49584961 4.59936523 C-28.96298163 3.27067592 -23.34747528 2.32523908 -17.75 1.3125 C-15.85121094 0.95575195 -15.85121094 0.95575195 -13.9140625 0.59179688 C-12.09261719 0.26211914 -12.09261719 0.26211914 -10.234375 -0.07421875 C-9.13319336 -0.27619873 -8.03201172 -0.47817871 -6.89746094 -0.6862793 C-4.20391158 -0.97792161 -2.53089503 -0.8767579 0 0 Z " fill="#7B7E86" transform="translate(174,132)"/>
<path d="M0 0 C2.31 0 4.62 0 7 0 C6.34 4.62 5.68 9.24 5 14 C5.99 14 6.98 14 8 14 C8 14.66 8 15.32 8 16 C9.43666016 15.94779297 9.43666016 15.94779297 10.90234375 15.89453125 C26.25569279 15.51235492 40.39349042 18.43980604 55 23 C55 24.32 55 25.64 55 27 C54.44957031 26.96519531 53.89914063 26.93039063 53.33203125 26.89453125 C46.43573859 26.67000079 39.80899744 27.4541653 33 28.4375 C32.06776611 28.57196533 31.13553223 28.70643066 30.17504883 28.8449707 C26.65244132 29.37318501 23.38665487 29.87111504 20 31 C18.25352227 31.20023312 16.5025664 31.36292777 14.75 31.5 C10.46615332 31.85840948 6.24683355 32.33938145 2 33 C2.165 32.236875 2.33 31.47375 2.5 30.6875 C3.94121186 20.05856254 2.1865828 10.37325294 0 0 Z " fill="#8D9199" transform="translate(96,154)"/>
<path d="M0 0 C5.4907833 8.23617495 6.13039729 20.54476074 4.671875 30.1640625 C4.125 32.0625 4.125 32.0625 2 35 C-1.29444761 36.17772523 -4.52463593 36.68050124 -8 37 C-7.835 36.175 -7.67 35.35 -7.5 34.5 C-6.48487922 27.39415451 -7.16288523 21.09251456 -8.5625 14.125 C-10.13297388 6.26594775 -10.13297388 6.26594775 -9 4 C-6.95756472 3.36614078 -4.90867481 2.98173496 -2.8125 2.5625 C-2.214375 2.376875 -1.61625 2.19125 -1 2 C-0.67 1.34 -0.34 0.68 0 0 Z " fill="#6D6E6F" transform="translate(95,153)"/>
<path d="M0 0 C12.16043461 0.2633165 23.23600083 4.7599025 33 12 C35.92834216 15.34667675 36.92254925 16.95441491 37.25 21.375 C37.1675 22.24125 37.085 23.1075 37 24 C33.50905868 25.23254726 33.50905868 25.23254726 31.28125 24.21484375 C30.6934375 23.79332031 30.105625 23.37179688 29.5 22.9375 C26.21018026 20.70577386 22.93280597 19.01537642 19.3125 17.375 C14.24533707 14.89642605 10.04696951 11.91824103 5.75 8.3125 C5.17677002 7.8366748 4.60354004 7.36084961 4.01293945 6.87060547 C2.60999787 5.65172328 1.29624699 4.33178925 0 3 C0 2.01 0 1.02 0 0 Z " fill="#6E6E6E" transform="translate(331,110)"/>
<path d="M0 0 C1.32 0 2.64 0 4 0 C4 0.99 4 1.98 4 3 C5.98 2.34 7.96 1.68 10 1 C9.67 3.31 9.34 5.62 9 8 C7.68 8.33 6.36 8.66 5 9 C7.31 9 9.62 9 12 9 C12 9.66 12 10.32 12 11 C14.97 11.495 14.97 11.495 18 12 C17.01 12.33 16.02 12.66 15 13 C15 13.66 15 14.32 15 15 C17.31 15.33 19.62 15.66 22 16 C21.34 16.99 20.68 17.98 20 19 C8.32398917 17.97294349 -2.71105056 16.16828826 -14 13 C-14 12.01 -14 11.02 -14 10 C-15.32 9.67 -16.64 9.34 -18 9 C-18.36075949 4.55063291 -18.36075949 4.55063291 -16.8125 2.1875 C-14.44017475 0.63321794 -12.77958655 0.77462812 -10 1 C-10.99 3.31 -11.98 5.62 -13 8 C-10.29987653 8.67350769 -10.29987653 8.67350769 -7 8 C-5.00772002 6.04628028 -3.36943083 3.99246986 -1.7109375 1.75 C-1.14632812 1.1725 -0.58171875 0.595 0 0 Z " fill="#81858C" transform="translate(218,183)"/>
<path d="M0 0 C2 3 2 3 1.625 5.6875 C1.41875 6.450625 1.2125 7.21375 1 8 C-2.01785613 8.98850692 -5.03974967 9.96407193 -8.0625 10.9375 C-8.91005859 11.21529297 -9.75761719 11.49308594 -10.63085938 11.77929688 C-18.01137019 14.14447988 -24.17970544 15.42211348 -31.9375 14.0625 C-33.08089844 13.86785156 -34.22429687 13.67320312 -35.40234375 13.47265625 C-36.25957031 13.31667969 -37.11679687 13.16070312 -38 13 C-37.34 12.34 -36.68 11.68 -36 11 C-34.68 11 -33.36 11 -32 11 C-32 10.34 -32 9.68 -32 9 C-32.66 8.67 -33.32 8.34 -34 8 C-33.67 7.34 -33.34 6.68 -33 6 C-31.23754883 5.4375 -31.23754883 5.4375 -28.95703125 5 C-28.13009766 4.835 -27.30316406 4.67 -26.45117188 4.5 C-25.58041016 4.335 -24.70964844 4.17 -23.8125 4 C-2.21807421 -0.18483952 -2.21807421 -0.18483952 0 0 Z " fill="#A6A8AD" transform="translate(378,152)"/>
<path d="M0 0 C2.29370226 7.82316305 3.433422 14.84524526 3 23 C1.35 23 -0.3 23 -2 23 C-2 24.32 -2 25.64 -2 27 C-2.66 27 -3.32 27 -4 27 C-3.96519531 26.44054687 -3.93039063 25.88109375 -3.89453125 25.3046875 C-3.633414 17.57064311 -5.18671913 10.49057693 -7 3 C-22.30755203 4.63563371 -22.30755203 4.63563371 -36 11 C-38.01187633 14.63495447 -38.22394961 17.70609127 -38.125 21.8125 C-38.10695312 22.78832031 -38.08890625 23.76414063 -38.0703125 24.76953125 C-38.04710937 25.50558594 -38.02390625 26.24164063 -38 27 C-38.66 27 -39.32 27 -40 27 C-41.54569191 14.09138381 -41.54569191 14.09138381 -39 9 C-35.99382731 5.99382731 -33.17618402 6.40414684 -29 6 C-29 5.34 -29 4.68 -29 4 C-27.68 4 -26.36 4 -25 4 C-25 3.34 -25 2.68 -25 2 C-21.58518736 1.46649143 -18.16796104 0.95041814 -14.75 0.4375 C-13.78191406 0.28603516 -12.81382813 0.13457031 -11.81640625 -0.02148438 C-10.88183594 -0.16005859 -9.94726562 -0.29863281 -8.984375 -0.44140625 C-8.12553711 -0.57232666 -7.26669922 -0.70324707 -6.38183594 -0.83813477 C-3.98957886 -1.0007082 -2.27197422 -0.71976511 0 0 Z " fill="#A4A7AE" transform="translate(85,157)"/>
<path d="M0 0 C1 2 2 4 3 6 C-5.42857143 9.42857143 -5.42857143 9.42857143 -10 9 C-10.33 10.32 -10.66 11.64 -11 13 C-15.84241633 14.33583899 -19.93437617 15.25328119 -25 15 C-25 15.66 -25 16.32 -25 17 C-26.65 16.67 -28.3 16.34 -30 16 C-30 15.01 -30 14.02 -30 13 C-31.32 12.67 -32.64 12.34 -34 12 C-34 11.01 -34 10.02 -34 9 C-32.08487728 8.49411853 -30.16783078 7.99551609 -28.25 7.5 C-27.18265625 7.2215625 -26.1153125 6.943125 -25.015625 6.65625 C-22 6 -22 6 -18 6 C-17.67 5.34 -17.34 4.68 -17 4 C-14.453125 3.3671875 -14.453125 3.3671875 -11.25 2.875 C-10.20328125 2.70742187 -9.1565625 2.53984375 -8.078125 2.3671875 C-5.3438423 2.04101672 -2.74892942 1.92873146 0 2 C0 1.34 0 0.68 0 0 Z " fill="#BFC3CC" transform="translate(326,104)"/>
<path d="M0 0 C5.97977305 -0.43489259 9.41159601 0.47459698 14.74609375 3.109375 C18.27548708 4.50400529 21.24733557 4.27292105 25 4 C25 4.66 25 5.32 25 6 C26.38832031 6.17208984 26.38832031 6.17208984 27.8046875 6.34765625 C32.9728415 7.08763602 38.03826834 8.27588285 43.125 9.4375 C44.10082031 9.65470703 45.07664062 9.87191406 46.08203125 10.09570312 C47.02691406 10.31033203 47.97179687 10.52496094 48.9453125 10.74609375 C49.79625488 10.93872803 50.64719727 11.1313623 51.52392578 11.32983398 C54.11562093 12.03129358 56.52810749 12.95691994 59 14 C58.34 14.33 57.68 14.66 57 15 C57 15.66 57 16.32 57 17 C49.68592007 16.64609291 43.16989166 15.04143403 36.18261719 13.015625 C29.20807553 11.00889454 22.18052338 9.41209413 15.0859375 7.89453125 C2.04738299 5.07107448 2.04738299 5.07107448 0 2 C0 1.34 0 0.68 0 0 Z " fill="#96989D" transform="translate(351,228)"/>
<path d="M0 0 C5.35300183 2.49592739 8.79658489 5.25752689 12.16796875 10.08984375 C-0.75040582 13.30508364 -0.75040582 13.30508364 -4.953125 10.8515625 C-6.50695415 9.79558755 -8.04739331 8.7196562 -9.57421875 7.625 C-12.53587872 5.61127618 -15.49619162 4.36739935 -18.83203125 3.08984375 C-18.83203125 2.42984375 -18.83203125 1.76984375 -18.83203125 1.08984375 C-13.13388824 -2.27233068 -6.17686444 -1.98511644 0 0 Z " fill="#707071" transform="translate(303.83203125,89.91015625)"/>
<path d="M0 0 C0.66 0 1.32 0 2 0 C2.0825 0.763125 2.165 1.52625 2.25 2.3125 C3.14615794 5.52373261 4.21611025 6.29374499 7 8 C1.77309076 9.16768279 -3.22820858 9.18384888 -8.5625 9.1875 C-9.50802734 9.19974609 -10.45355469 9.21199219 -11.42773438 9.22460938 C-12.33974609 9.22654297 -13.25175781 9.22847656 -14.19140625 9.23046875 C-15.01842041 9.23457764 -15.84543457 9.23868652 -16.69750977 9.24291992 C-19.20473181 8.97840015 -20.83323384 8.25660609 -23 7 C-22.34 6.34 -21.68 5.68 -21 5 C-31.57500986 4.89777112 -42.12124149 4.95526061 -52.6875 5.4375 C-54.05878052 5.49635376 -54.05878052 5.49635376 -55.45776367 5.55639648 C-56.30056885 5.59837158 -57.14337402 5.64034668 -58.01171875 5.68359375 C-58.75897217 5.72025146 -59.50622559 5.75690918 -60.27612305 5.79467773 C-62.02945121 5.82327948 -62.02945121 5.82327948 -63 7 C-65.33297433 7.04092937 -67.66705225 7.04241723 -70 7 C-70 6.67 -70 6.34 -70 6 C-68.02 6 -66.04 6 -64 6 C-64 5.34 -64 4.68 -64 4 C-59.9905112 3.25741679 -56.16181633 2.8580727 -52.08642578 2.79467773 C-50.94569611 2.77473251 -49.80496643 2.75478729 -48.62966919 2.73423767 C-46.80591263 2.70916893 -46.80591263 2.70916893 -44.9453125 2.68359375 C-43.06028519 2.6524221 -43.06028519 2.6524221 -41.13717651 2.62062073 C-37.81314299 2.56645388 -34.48909743 2.51616207 -31.16497803 2.46777344 C-27.76618283 2.41733504 -24.36747184 2.36176617 -20.96875 2.30664062 C-14.31256728 2.19971743 -7.65632114 2.09790536 -1 2 C-0.67 1.34 -0.34 0.68 0 0 Z " fill="#7D828B" transform="translate(253,132)"/>
<path d="M0 0 C0.66 0 1.32 0 2 0 C1.67 1.98 1.34 3.96 1 6 C6.13237592 10.39917936 10.33593879 12.07013099 17 13 C17 13.66 17 14.32 17 15 C17.886875 15.144375 18.77375 15.28875 19.6875 15.4375 C22.47117646 15.91019978 25.23483757 16.43070185 28 17 C26.296875 18.546875 26.296875 18.546875 24 20 C21.765625 19.890625 21.765625 19.890625 19.25 19.25 C14.24944694 18.15082823 9.41016956 17.65330153 4.3125 17.375 C3.59288086 17.33536133 2.87326172 17.29572266 2.13183594 17.25488281 C0.42149181 17.1646905 -1.28922287 17.08156779 -3 17 C-3 16.34 -3 15.68 -3 15 C-3.99 15.33 -4.98 15.66 -6 16 C-7.30303294 12.09090118 -6.59541038 10.77097 -5 7 C-3.50219878 4.53011587 -1.96255136 2.12609731 0 0 Z " fill="#747882" transform="translate(107,153)"/>
<path d="M0 0 C0.82306641 0.52013672 1.64613281 1.04027344 2.49414062 1.57617188 C3.34041016 2.12208984 4.18667969 2.66800781 5.05859375 3.23046875 C6.33379883 4.03194336 6.33379883 4.03194336 7.63476562 4.84960938 C11.63966527 7.40332185 15.34199292 9.8095376 18.49609375 13.41796875 C14.69105201 14.686316 12.52288983 14.92930793 8.49609375 14.41796875 C5.90288197 12.92919129 3.58143789 11.23115736 1.1953125 9.4296875 C-2.44677311 6.71525322 -6.29088382 4.37649192 -10.15625 1.99609375 C-12.21817736 0.61003942 -13.83607191 -0.7545692 -15.50390625 -2.58203125 C-9.29488517 -3.8815938 -5.36263032 -3.40076318 0 0 Z " fill="#4C5053" transform="translate(275.50390625,165.58203125)"/>
<path d="M0 0 C2.97 0.33 5.94 0.66 9 1 C9 1.66 9 2.32 9 3 C9.55945313 3.03738281 10.11890625 3.07476562 10.6953125 3.11328125 C19.93809893 3.8711303 29.44792873 5.29356761 38 9 C38 9.66 38 10.32 38 11 C39.98 11 41.96 11 44 11 C44.495 12.485 44.495 12.485 45 14 C39.43688251 14.26247999 34.98882595 13.37180263 29.6875 11.75 C24.783797 10.29491965 19.91765625 8.93446718 14.89453125 7.953125 C14.0744458 7.79102539 13.25436035 7.62892578 12.40942383 7.46191406 C10.83060546 7.15923655 9.24831014 6.87405092 7.6628418 6.60839844 C5.5 6.1875 5.5 6.1875 2 5 C0.5 2.375 0.5 2.375 0 0 Z " fill="#96989E" transform="translate(304,216)"/>
<path d="M0 0 C0.05402274 2.10388569 0.09280256 4.20816714 0.125 6.3125 C0.14820312 7.48425781 0.17140625 8.65601563 0.1953125 9.86328125 C0 13 0 13 -2 16 C-4.3828125 16.73046875 -4.3828125 16.73046875 -7.125 17.1875 C-8.73375 17.455625 -10.3425 17.72375 -12 18 C-11.34 12.72 -10.68 7.44 -10 2 C-4 0 -4 0 0 0 Z " fill="#383939" transform="translate(99,172)"/>
<path d="M0 0 C16.05770234 -0.63108874 30.71563625 2.22817804 46 7 C46 8.32 46 9.64 46 11 C41.02643642 11.31084772 37.63924787 10.69072291 33.05078125 8.79296875 C30.96541474 7.98662703 28.92642455 7.44223668 26.75 6.9375 C23.8150257 6.20375643 21.58184186 5.50607442 19 4 C19 3.34 19 2.68 19 2 C17.96359375 2.02320313 16.9271875 2.04640625 15.859375 2.0703125 C14.48959056 2.08907667 13.1197983 2.10727618 11.75 2.125 C11.06808594 2.14175781 10.38617188 2.15851563 9.68359375 2.17578125 C5.9391765 2.21213482 3.17647273 2.07944349 0 0 Z " fill="#83868E" transform="translate(105,170)"/>
<path d="M0 0 C16.95145631 2.47572816 16.95145631 2.47572816 24 6 C24 6.66 24 7.32 24 8 C23.37955811 8.08564209 22.75911621 8.17128418 22.11987305 8.25952148 C19.30866566 8.6492433 16.49808577 9.0433213 13.6875 9.4375 C12.71103516 9.57220703 11.73457031 9.70691406 10.72851562 9.84570312 C9.32182617 10.04389648 9.32182617 10.04389648 7.88671875 10.24609375 C6.59060669 10.42676392 6.59060669 10.42676392 5.26831055 10.61108398 C2.84441874 10.96777075 2.84441874 10.96777075 0 12 C-1.74647773 12.20023312 -3.4974336 12.36292777 -5.25 12.5 C-9.53384668 12.85840948 -13.75316645 13.33938145 -18 14 C-15.37352812 12.24901874 -12.71224618 10.61268692 -10 9 C-9.67 9.33 -9.34 9.66 -9 10 C-7.37146465 9.93579251 -5.74550788 9.7987936 -4.125 9.625 C-3.24070312 9.53476563 -2.35640625 9.44453125 -1.4453125 9.3515625 C1.13106904 9.05520218 1.13106904 9.05520218 4 8 C6.6875 8.4375 6.6875 8.4375 9 9 C9 7.35 9 5.7 9 4 C6.03 3.01 3.06 2.02 0 1 C0 0.67 0 0.34 0 0 Z " fill="#A7A9B0" transform="translate(116,173)"/>
<path d="M0 0 C0 0.66 0 1.32 0 2 C-6.87230536 4.19453328 -13.72698917 5.90329384 -20.8125 7.25 C-22.18438477 7.5284375 -22.18438477 7.5284375 -23.58398438 7.8125 C-24.47021484 7.98265625 -25.35644531 8.1528125 -26.26953125 8.328125 C-27.05948486 8.4818457 -27.84943848 8.63556641 -28.66333008 8.79394531 C-33.63579476 9.23243243 -36.89168815 7.63353324 -41 5 C-42.32 4.34 -43.64 3.68 -45 3 C-42.03 3 -39.06 3 -36 3 C-36 3.66 -36 4.32 -36 5 C-32.7076434 4.5465399 -29.41626521 4.08630941 -26.125 3.625 C-25.2071875 3.49867187 -24.289375 3.37234375 -23.34375 3.2421875 C-17.93820625 2.48084331 -12.61457557 1.56417515 -7.28466797 0.38037109 C-4.81955296 -0.03004237 -2.49455864 -0.06334163 0 0 Z " fill="#999DA2" transform="translate(249,87)"/>
<path d="M0 0 C0.66 0.99 1.32 1.98 2 3 C-11.29635148 10.38928385 -26.30583343 12.26306103 -41 9 C-41 8.67 -41 8.34 -41 8 C-40.10796875 8.03480469 -39.2159375 8.06960937 -38.296875 8.10546875 C-37.12640625 8.13253906 -35.9559375 8.15960938 -34.75 8.1875 C-33.58984375 8.22230469 -32.4296875 8.25710937 -31.234375 8.29296875 C-27.71967187 7.97460796 -26.61708818 7.22363073 -24 5 C-22.9171875 5.2475 -22.9171875 5.2475 -21.8125 5.5 C-18.07425225 6.16457738 -15.72844532 4.99144309 -12.2265625 3.703125 C-9.42442738 2.81824023 -6.91616356 2.77567973 -4 3 C-4 2.34 -4 1.68 -4 1 C-2.68 0.67 -1.36 0.34 0 0 Z " fill="#A3A6A9" transform="translate(72,195)"/>
<path d="M0 0 C7.46821368 -0.57391199 11.42799138 0.70100444 17.5625 4.875 C18.28501953 5.33519531 19.00753906 5.79539062 19.75195312 6.26953125 C21.54918664 7.44274897 23.28171737 8.71392343 25 10 C25 10.66 25 11.32 25 12 C16.50851142 13.33199821 10.64812494 8.8190112 4 4 C2.63136557 2.70292816 1.2825932 1.38221209 0 0 Z " fill="#505457" transform="translate(137,84)"/>
<path d="M0 0 C0.66 0 1.32 0 2 0 C2 1.65 2 3.3 2 5 C0.80737549 4.99476318 -0.38524902 4.98952637 -1.61401367 4.98413086 C-6.14867364 4.96567633 -10.6833305 4.9544244 -15.21801758 4.94506836 C-17.16008059 4.9401186 -19.10214005 4.93335711 -21.04418945 4.92456055 C-31.66191408 4.87776218 -42.25473383 4.96338671 -52.86328125 5.44140625 C-54.22068672 5.49988991 -54.22068672 5.49988991 -55.60551453 5.55955505 C-59.62867157 5.38199622 -59.62867157 5.38199622 -63 7 C-65.33297433 7.04092937 -67.66705225 7.04241723 -70 7 C-70 6.67 -70 6.34 -70 6 C-68.02 6 -66.04 6 -64 6 C-64 5.34 -64 4.68 -64 4 C-59.9905112 3.25741679 -56.16181633 2.8580727 -52.08642578 2.79467773 C-50.94569611 2.77473251 -49.80496643 2.75478729 -48.62966919 2.73423767 C-46.80591263 2.70916893 -46.80591263 2.70916893 -44.9453125 2.68359375 C-43.06028519 2.6524221 -43.06028519 2.6524221 -41.13717651 2.62062073 C-37.81314299 2.56645388 -34.48909743 2.51616207 -31.16497803 2.46777344 C-27.76618283 2.41733504 -24.36747184 2.36176617 -20.96875 2.30664062 C-14.31256728 2.19971743 -7.65632114 2.09790536 -1 2 C-0.67 1.34 -0.34 0.68 0 0 Z " fill="#8D9099" transform="translate(253,132)"/>
<path d="M0 0 C-0.99 2.31 -1.98 4.62 -3 7 C-2.01 7 -1.02 7 0 7 C0 7.66 0 8.32 0 9 C3.3 9 6.6 9 10 9 C10.33 10.98 10.66 12.96 11 15 C9.24970238 14.68917128 7.49977306 14.37626821 5.75 14.0625 C4.77546875 13.88847656 3.8009375 13.71445313 2.796875 13.53515625 C0.50278205 13.09620271 -1.74291971 12.59651408 -4 12 C-4 11.01 -4 10.02 -4 9 C-5.32 8.67 -6.64 8.34 -8 8 C-8.36075949 3.55063291 -8.36075949 3.55063291 -6.8125 1.1875 C-4.44017475 -0.36678206 -2.77958655 -0.22537188 0 0 Z " fill="#97989C" transform="translate(208,184)"/>
<path d="M0 0 C0.33 0.99 0.66 1.98 1 3 C0.34 3 -0.32 3 -1 3 C-1 3.66 -1 4.32 -1 5 C-2.24663331 5.50833591 -3.49749387 6.00631145 -4.75 6.5 C-5.44609375 6.7784375 -6.1421875 7.056875 -6.859375 7.34375 C-9 8 -9 8 -13 8 C-13 7.34 -13 6.68 -13 6 C-14.32 5.67 -15.64 5.34 -17 5 C-17 4.01 -17 3.02 -17 2 C-15.10787298 1.46585888 -13.21108364 0.94821671 -11.3125 0.4375 C-10.25675781 0.14746094 -9.20101563 -0.14257812 -8.11328125 -0.44140625 C-4.99304618 -1.00124767 -3.02306766 -0.84690764 0 0 Z " fill="#C6CBD3" transform="translate(309,111)"/>
<path d="M0 0 C10.8 2 10.8 2 14 5 C14.71951121 7.73197864 14.85976198 10.14849352 15 13 C10.36133131 12.51523823 8.08714752 10.73756618 4.6875 7.625 C3.80449219 6.83351563 2.92148437 6.04203125 2.01171875 5.2265625 C0 3 0 3 0 0 Z " fill="#242425" transform="translate(331,110)"/>
<path d="M0 0 C2.375 1.8125 2.375 1.8125 4 4 C4 4.99 4 5.98 4 7 C0.7 7.33 -2.6 7.66 -6 8 C-5.34 7.34 -4.68 6.68 -4 6 C-8.16892044 3.91553978 -10.4939705 4.1164648 -15 5 C-17.67385304 5.09186837 -20.32343372 5.04614769 -23 5 C-19.65133292 3.12147944 -16.35733428 2.23630791 -12.625 1.375 C-11.52414062 1.11460938 -10.42328125 0.85421875 -9.2890625 0.5859375 C-6.07747025 0.01380111 -3.25191668 -0.23692536 0 0 Z " fill="#A0A4A9" transform="translate(322,99)"/>
<path d="M0 0 C1.50121651 0.00033989 1.50121651 0.00033989 3.03276062 0.00068665 C4.65006828 0.02391243 4.65006828 0.02391243 6.30004883 0.04760742 C7.40560623 0.05185226 8.51116364 0.05609711 9.65022278 0.06047058 C13.18608819 0.0772818 16.72138653 0.11493932 20.25708008 0.15307617 C22.65225415 0.16811981 25.04743714 0.18180877 27.44262695 0.1940918 C33.31847193 0.22719332 39.1939855 0.27741724 45.06958008 0.34057617 C45.06958008 0.67057617 45.06958008 1.00057617 45.06958008 1.34057617 C43.3602832 1.3781604 43.3602832 1.3781604 41.61645508 1.41650391 C37.35968155 1.51118657 33.10304826 1.61125483 28.84643555 1.71289062 C27.00955503 1.75601064 25.17264031 1.79770023 23.33569336 1.83789062 C20.68438444 1.89615325 18.03324402 1.95968156 15.38208008 2.02416992 C14.16439941 2.04923866 14.16439941 2.04923866 12.92211914 2.07481384 C7.90707697 2.20301876 3.03829053 2.64247235 -1.93041992 3.34057617 C-2.26041992 4.33057617 -2.59041992 5.32057617 -2.93041992 6.34057617 C-3.92041992 6.67057617 -4.91041992 7.00057617 -5.93041992 7.34057617 C-6.59041992 8.00057617 -7.25041992 8.66057617 -7.93041992 9.34057617 C-8.29640452 3.85080724 -8.29640452 3.85080724 -6.72685242 1.66264343 C-4.3580048 -0.08068724 -2.92624084 -0.02211265 0 0 Z " fill="#A9ABAE" transform="translate(127.930419921875,24.659423828125)"/>
<path d="M0 0 C5.625 -0.25 5.625 -0.25 9 2 C11.3329866 2.04022391 13.66706666 2.04320247 16 2 C16.33 2.33 16.66 2.66 17 3 C18.84599688 3.39454223 20.70225822 3.74176866 22.5625 4.0625 C24.08037109 4.32740234 24.08037109 4.32740234 25.62890625 4.59765625 C26.41136719 4.73042969 27.19382812 4.86320313 28 5 C28.33 5.99 28.66 6.98 29 8 C20.98298054 8.41467342 13.78069851 6.85939879 6 5 C6 4.34 6 3.68 6 3 C3.03 2.505 3.03 2.505 0 2 C0 1.34 0 0.68 0 0 Z " fill="#8F9198" transform="translate(412,244)"/>
<path d="M0 0 C3.3 0.33 6.6 0.66 10 1 C10.33 1.99 10.66 2.98 11 4 C11.99 3.67 12.98 3.34 14 3 C17.78238227 4.44418232 21.40901574 6.13268818 25 8 C24 9 24 9 21.1875 9.25 C15.69097978 9.18115006 10.17697239 7.78009461 5 6 C4.67 5.34 4.34 4.68 4 4 C0.97065509 3.34227572 0.97065509 3.34227572 -2 3 C-1.34 2.01 -0.68 1.02 0 0 Z " fill="#919399" transform="translate(171,183)"/>
<path d="M0 0 C0 0.66 0 1.32 0 2 C-1.43554025 2.50559908 -2.8735202 3.0042749 -4.3125 3.5 C-5.51326172 3.91765625 -5.51326172 3.91765625 -6.73828125 4.34375 C-9 5 -9 5 -12 5 C-12 5.66 -12 6.32 -12 7 C-12.99 7 -13.98 7 -15 7 C-15 12.28 -15 17.56 -15 23 C-15.33 23 -15.66 23 -16 23 C-16 20.03 -16 17.06 -16 14 C-16.99 14.33 -17.98 14.66 -19 15 C-19.82269275 11.09220944 -20.2807202 8.84216059 -19 5 C-16.63671875 3.8671875 -16.63671875 3.8671875 -13.6875 2.875 C-12.72199219 2.54242188 -11.75648437 2.20984375 -10.76171875 1.8671875 C-6.88172251 0.64885771 -4.11730378 0 0 0 Z " fill="#81848B" transform="translate(56,161)"/>
<path d="M0 0 C1.125 1.75 1.125 1.75 2 4 C1.37224433 5.35208914 0.69580267 6.68163705 0 8 C-0.22433994 10.01905943 -0.44807179 12.03821023 -0.66015625 14.05859375 C-1.1408161 16.8044322 -2.49015836 18.6771667 -4 21 C-6.46017745 26.47783353 -7.84418785 32.1257547 -9 38 C-9.66 38 -10.32 38 -11 38 C-11.495 40.475 -11.495 40.475 -12 43 C-13.28135441 39.15593677 -12.44269639 37.56437773 -11.1875 33.75 C-10.81238281 32.58984375 -10.43726562 31.4296875 -10.05078125 30.234375 C-9.53064453 28.63335937 -9.53064453 28.63335937 -9 27 C-8.61611471 25.66919766 -8.23868387 24.3364643 -7.875 23 C-7.06937259 20.23784889 -6.09089311 17.65905195 -5 15 C-3.87636163 11.76953968 -2.870113 8.5415753 -1.9375 5.25 C-1 2 -1 2 0 0 Z " fill="#C6C7CA" transform="translate(121,33)"/>
<path d="M0 0 C0.33 0.99 0.66 1.98 1 3 C-1.70647467 3.67511172 -4.41477185 4.34027341 -7.125 5 C-8.26582031 5.28617188 -8.26582031 5.28617188 -9.4296875 5.578125 C-13.71588834 6.6127252 -17.55400901 7.2272711 -22 7 C-22.33 6.01 -22.66 5.02 -23 4 C-7.25512528 -0.59225513 -7.25512528 -0.59225513 0 0 Z " fill="#828282" transform="translate(378,152)"/>
<path d="M0 0 C6.43974581 0.62320121 12.67572401 1.64008262 19 3 C19.33 3.99 19.66 4.98 20 6 C21.32 5.67 22.64 5.34 24 5 C24 5.66 24 6.32 24 7 C16.42874755 7.38863843 7.3029521 7.72733789 1.21875 2.45703125 C0 1 0 1 0 0 Z " fill="#8F9198" transform="translate(259,205)"/>
<path d="M0 0 C0.33 0 0.66 0 1 0 C1 1.98 1 3.96 1 6 C2.32 5.67 3.64 5.34 5 5 C4.484375 5.70125 3.96875 6.4025 3.4375 7.125 C1.69556233 10.60887535 2.05306805 12.2983569 3 16 C2.34 16 1.68 16 1 16 C0.34 14.35 -0.32 12.7 -1 11 C-3.97 10.67 -6.94 10.34 -10 10 C-9.278125 9.46375 -8.55625 8.9275 -7.8125 8.375 C-5.6328888 6.53443943 -4.0212012 4.9291455 -2.25 2.75 C-1.5075 1.8425 -0.765 0.935 0 0 Z " fill="#7E8186" transform="translate(218,183)"/>
<path d="M0 0 C0.82306641 0.52013672 1.64613281 1.04027344 2.49414062 1.57617188 C3.34041016 2.12208984 4.18667969 2.66800781 5.05859375 3.23046875 C6.33379883 4.03194336 6.33379883 4.03194336 7.63476562 4.84960938 C11.63966527 7.40332185 15.34199292 9.8095376 18.49609375 13.41796875 C17.47515625 12.98484375 17.47515625 12.98484375 16.43359375 12.54296875 C13.4161966 11.33323497 13.4161966 11.33323497 9.87109375 10.41796875 C6.49609375 9.41796875 6.49609375 9.41796875 3.49609375 7.41796875 C3.49609375 6.42796875 3.49609375 5.43796875 3.49609375 4.41796875 C2.79484375 4.14984375 2.09359375 3.88171875 1.37109375 3.60546875 C-1.50390625 2.41796875 -1.50390625 2.41796875 -4.31640625 0.85546875 C-8.17502889 -0.8846944 -11.3022125 -1.21981627 -15.50390625 -1.58203125 C-15.50390625 -1.91203125 -15.50390625 -2.24203125 -15.50390625 -2.58203125 C-9.29488517 -3.8815938 -5.36263032 -3.40076318 0 0 Z " fill="#2E3335" transform="translate(275.50390625,165.58203125)"/>
<path d="M0 0 C1.5778125 0.4021875 1.5778125 0.4021875 3.1875 0.8125 C2.28424384 2.13426485 1.36432097 3.44465066 0.4375 4.75 C-0.07296875 5.48089844 -0.5834375 6.21179688 -1.109375 6.96484375 C-3.03849633 9.05767491 -4.00667739 9.55290618 -6.8125 9.8125 C-7.8025 9.4825 -8.7925 9.1525 -9.8125 8.8125 C-9.47779544 5.80015893 -8.55141115 4.46694123 -6.6875 2 C-3.8125 -0.1875 -3.8125 -0.1875 0 0 Z " fill="#D5D9DB" transform="translate(214.8125,182.1875)"/>
<path d="M0 0 C4.62 0 9.24 0 14 0 C13.21625 1.794375 12.4325 3.58875 11.625 5.4375 C11.18414063 6.44683594 10.74328125 7.45617187 10.2890625 8.49609375 C9 11 9 11 7 12 C5.0546875 11.66015625 5.0546875 11.66015625 2.875 11.0625 C2.15054688 10.86785156 1.42609375 10.67320312 0.6796875 10.47265625 C0.12539063 10.31667969 -0.42890625 10.16070312 -1 10 C1.91765 8.0549 3.62537285 7.54723683 7 7 C7 5.35 7 3.7 7 2 C4.69 1.67 2.38 1.34 0 1 C0 0.67 0 0.34 0 0 Z " fill="#767A81" transform="translate(541,268)"/>
<path d="M0 0 C0.66 1.32 1.32 2.64 2 4 C2.99 4 3.98 4 5 4 C5.845625 4.04125 6.69125 4.0825 7.5625 4.125 C10.18314627 4.26349674 10.18314627 4.26349674 12 2 C13.00109515 5.31070838 13.10356134 8.30084769 13.0625 11.75 C13.05347656 12.73484375 13.04445313 13.7196875 13.03515625 14.734375 C13.02355469 15.48203125 13.01195313 16.2296875 13 17 C12.67 17 12.34 17 12 17 C12 14.03 12 11.06 12 8 C11.0925 8.33 10.185 8.66 9.25 9 C6 10 6 10 2 10 C1.67 10.66 1.34 11.32 1 12 C0.67 8.04 0.34 4.08 0 0 Z " fill="#4F4E51" transform="translate(87,164)"/>
<path d="M0 0 C-0.33 1.32 -0.66 2.64 -1 4 C-1.556875 4.04898438 -2.11375 4.09796875 -2.6875 4.1484375 C-6.65478024 4.53712374 -10.4551398 5.03822921 -14.3125 6.0625 C-18 7 -18 7 -22 7 C-21.67 6.01 -21.34 5.02 -21 4 C-18.57405008 3.10559923 -16.3100728 2.42091347 -13.8125 1.8125 C-12.8215332 1.54663086 -12.8215332 1.54663086 -11.81054688 1.27539062 C-7.79267531 0.24811645 -4.13940262 -0.18669156 0 0 Z " fill="#BCBDBE" transform="translate(380,155)"/>
<path d="M0 0 C0.66 0 1.32 0 2 0 C2.33 0.66 2.66 1.32 3 2 C3.33 1.34 3.66 0.68 4 0 C8.29 0 12.58 0 17 0 C16.67 0.99 16.34 1.98 16 3 C11.79136537 5.0341734 7.55841265 6.28623906 2.9375 5.4375 C1 4 1 4 0.1875 1.875 C0.125625 1.25625 0.06375 0.6375 0 0 Z " fill="#2E2E32" transform="translate(96,143)"/>
<path d="M0 0 C10.58546234 2.15297539 20.78105111 5.53594953 31 9 C27.79619983 11.13586678 26.98060033 11.23132175 23.3125 11.125 C22.50425781 11.10695312 21.69601562 11.08890625 20.86328125 11.0703125 C19.94095703 11.03550781 19.94095703 11.03550781 19 11 C19.66 10.67 20.32 10.34 21 10 C20.14532959 7.73702265 20.14532959 7.73702265 17.5 7 C10.3603035 4.83532413 10.3603035 4.83532413 3 4 C1.375 2 1.375 2 0 0 Z " fill="#BFC1C4" transform="translate(589,244)"/>
<path d="M0 0 C0.99 0 1.98 0 3 0 C4.45184478 4.53701494 5.23509196 8.18061476 5 13 C4.34 12.67 3.68 12.34 3 12 C2.34 12.66 1.68 13.32 1 14 C-0.44209192 9.49346274 -1.34223148 5.79124078 -1 1 C-0.67 0.67 -0.34 0.34 0 0 Z " fill="#C2C5CA" transform="translate(82,159)"/>
<path d="M0 0 C1.98 0 3.96 0 6 0 C6 0.66 6 1.32 6 2 C5.01 2.66 4.02 3.32 3 4 C3 4.33 3 4.66 3 5 C-10.53 5 -24.06 5 -38 5 C-38 4.67 -38 4.34 -38 4 C-25.79 3.67 -13.58 3.34 -1 3 C-0.67 2.01 -0.34 1.02 0 0 Z " fill="#9498A1" transform="translate(250,130)"/>
<path d="M0 0 C0.33 0.66 0.66 1.32 1 2 C3.35599235 2.46751788 3.35599235 2.46751788 6.0625 2.625 C7.44115234 2.73714844 7.44115234 2.73714844 8.84765625 2.8515625 C9.55792969 2.90054688 10.26820313 2.94953125 11 3 C10.01 4.485 10.01 4.485 9 6 C3.06 5.34 -2.88 4.68 -9 4 C-8.67 2.68 -8.34 1.36 -8 0 C-5.09660535 -1.45169732 -3.09125158 -0.72348441 0 0 Z " fill="#8E9298" transform="translate(229,196)"/>
<path d="M0 0 C0 0.66 0 1.32 0 2 C-2.7481128 2.84003448 -5.49819581 3.67222151 -8.25 4.5 C-9.02730469 4.73847656 -9.80460937 4.97695312 -10.60546875 5.22265625 C-11.73662109 5.56103516 -11.73662109 5.56103516 -12.890625 5.90625 C-13.92751465 6.22045898 -13.92751465 6.22045898 -14.98535156 6.54101562 C-17 7 -17 7 -21 7 C-21 6.34 -21 5.68 -21 5 C-7.14271654 -0.3484252 -7.14271654 -0.3484252 0 0 Z " fill="#6D6E6E" transform="translate(379,158)"/>
<path d="M0 0 C-0.598125 0.28875 -1.19625 0.5775 -1.8125 0.875 C-4.19327792 2.04742026 -4.19327792 2.04742026 -7 4 C-9.04296875 4.1953125 -9.04296875 4.1953125 -11.1875 4.125 C-13.0746875 4.063125 -13.0746875 4.063125 -15 4 C-15 3.67 -15 3.34 -15 3 C-15.80824219 3.08378906 -16.61648437 3.16757813 -17.44921875 3.25390625 C-18.51785156 3.35574219 -19.58648437 3.45757812 -20.6875 3.5625 C-22.27111328 3.71912109 -22.27111328 3.71912109 -23.88671875 3.87890625 C-26.81426086 3.99277552 -29.17131144 3.70848415 -32 3 C-32 2.67 -32 2.34 -32 2 C-26.85267008 1.19509558 -21.7629053 0.7230308 -16.5625 0.4375 C-15.85029297 0.39431641 -15.13808594 0.35113281 -14.40429688 0.30664062 C-9.59542049 0.03147331 -4.81659193 -0.03801144 0 0 Z " fill="#5F6162" transform="translate(242,108)"/>
<path d="M0 0 C4.29 0.99 8.58 1.98 13 3 C12.01 3.99 11.02 4.98 10 6 C9.01 5.67 8.02 5.34 7 5 C5.59175107 4.91978001 4.18002769 4.89234023 2.76953125 4.90234375 C1.56586914 4.90717773 1.56586914 4.90717773 0.33789062 4.91210938 C-0.49548828 4.92048828 -1.32886719 4.92886719 -2.1875 4.9375 C-3.4549707 4.94426758 -3.4549707 4.94426758 -4.74804688 4.95117188 C-6.83206155 4.96294597 -8.91603977 4.9808811 -11 5 C-11 4.34 -11 3.68 -11 3 C-7.61981469 1.95994298 -4.5219721 1.91995518 -1 2 C-0.67 1.34 -0.34 0.68 0 0 Z " fill="#B8BBBF" transform="translate(443,198)"/>
<path d="M0 0 C0 0.66 0 1.32 0 2 C-2.76989964 2.67076489 -5.54079742 3.33676317 -8.3125 4 C-9.09818359 4.19078125 -9.88386719 4.3815625 -10.69335938 4.578125 C-11.8293457 4.84882812 -11.8293457 4.84882812 -12.98828125 5.125 C-13.68477783 5.29257813 -14.38127441 5.46015625 -15.09887695 5.6328125 C-17 6 -17 6 -20 6 C-20 5.01 -20 4.02 -20 3 C-13.19925959 1.09579269 -7.08076251 -0.40850553 0 0 Z " fill="#696969" transform="translate(248,82)"/>
<path d="M0 0 C6.20970773 -0.33266291 10.28264895 0.54970669 16 3 C15.67 3.66 15.34 4.32 15 5 C14.34 4.67 13.68 4.34 13 4 C13 4.66 13 5.32 13 6 C11.39482903 5.91266424 9.79078338 5.80447776 8.1875 5.6875 C6.84751953 5.60048828 6.84751953 5.60048828 5.48046875 5.51171875 C2.67328075 4.93259808 1.69302154 4.2779858 0 2 C0 1.34 0 0.68 0 0 Z " fill="#8E9297" transform="translate(351,228)"/>
<path d="M0 0 C0.515625 0.268125 1.03125 0.53625 1.5625 0.8125 C2.366875 1.204375 3.17125 1.59625 4 2 C5.0725 2.53625 6.145 3.0725 7.25 3.625 C14.34128693 6.22513854 21.63878423 4.84472968 29 4 C25.21587279 7.78412721 19.23983603 8.1667286 14.0625 8.5625 C8.00096748 8.4873182 4.14003375 5.170034 0 1 C0 0.67 0 0.34 0 0 Z " fill="#313235" transform="translate(115,131)"/>
<path d="M0 0 C2.3125 1.3125 2.3125 1.3125 4 3 C4 3.99 4 4.98 4 6 C2.02 6.66 0.04 7.32 -2 8 C-2.2784375 7.0409375 -2.2784375 7.0409375 -2.5625 6.0625 C-3.94246056 3.57873787 -3.94246056 3.57873787 -7.625 3.25 C-8.73875 3.1675 -9.8525 3.085 -11 3 C-7.22155109 0.48103406 -4.5005637 -0.43907939 0 0 Z " fill="#3E4041" transform="translate(111,132)"/>
<path d="M0 0 C0.33 1.65 0.66 3.3 1 5 C0.01 5 -0.98 5 -2 5 C-2.66 6.98 -3.32 8.96 -4 11 C-4.66 10.67 -5.32 10.34 -6 10 C-6 9.01 -6 8.02 -6 7 C-7.65 6.67 -9.3 6.34 -11 6 C-10 3 -10 3 -8.22265625 2.05078125 C-7.50980469 1.80714844 -6.79695313 1.56351562 -6.0625 1.3125 C-5.35222656 1.06113281 -4.64195312 0.80976562 -3.91015625 0.55078125 C-2 0 -2 0 0 0 Z " fill="#9FA2A7" transform="translate(331,109)"/>
<path d="M0 0 C5.12583611 -0.10251672 9.94997778 -0.03590199 15 1 C15 1.66 15 2.32 15 3 C16.32 3.33 17.64 3.66 19 4 C19 4.33 19 4.66 19 5 C12.5881273 5.35621515 6.95504101 4.53060222 1 2 C0.67 1.34 0.34 0.68 0 0 Z " fill="#8D8F96" transform="translate(457,256)"/>
<path d="M0 0 C2.6015625 0.2421875 2.6015625 0.2421875 5.625 0.875 C6.62789062 1.07867187 7.63078125 1.28234375 8.6640625 1.4921875 C9.43492187 1.65976563 10.20578125 1.82734375 11 2 C11 3.32 11 4.64 11 6 C6.17639811 6.19294408 2.50353262 5.75747614 -2 4 C-2 2 -2 2 0 0 Z " fill="#878990" transform="translate(140,175)"/>
<path d="M0 0 C2.7515003 2.00109113 3.34677418 3.92999995 4.0625 7.125 C4.371875 8.40375 4.68125 9.6825 5 11 C5.66 11.33 6.32 11.66 7 12 C7.28875 13.0725 7.5775 14.145 7.875 15.25 C9.39632165 20.32107217 12.22270157 23.41156649 16 27 C11.25315062 25.64375732 8.67464474 23.01330096 6 19 C4.66181836 16.15284829 3.65917876 13.23938637 2.6875 10.25 C2.42388672 9.48300781 2.16027344 8.71601563 1.88867188 7.92578125 C0 2.34316153 0 2.34316153 0 0 Z " fill="#6B6E70" transform="translate(12,176)"/>
<path d="M0 0 C2.31 0 4.62 0 7 0 C7 0.66 7 1.32 7 2 C7.94875 2.12375 8.8975 2.2475 9.875 2.375 C13 3 13 3 15 5 C10.38 5 5.76 5 1 5 C0.67 3.35 0.34 1.7 0 0 Z " fill="#61646F" transform="translate(105,164)"/>
<path d="M0 0 C-0.33 0.66 -0.66 1.32 -1 2 C-4.53826255 3.17942085 -7.34148726 3.11289189 -11.07421875 3.09765625 C-12.09996758 3.09553383 -12.09996758 3.09553383 -13.1464386 3.09336853 C-15.32683722 3.08777876 -17.50713251 3.07522822 -19.6875 3.0625 C-21.16731622 3.05748367 -22.64713406 3.052921 -24.12695312 3.04882812 C-27.75133557 3.03781271 -31.3756577 3.02055512 -35 3 C-35 2.67 -35 2.34 -35 2 C-34.3702124 1.97494385 -33.7404248 1.9498877 -33.09155273 1.92407227 C-30.20670659 1.80721573 -27.32211605 1.68489979 -24.4375 1.5625 C-22.9515332 1.50352539 -22.9515332 1.50352539 -21.43554688 1.44335938 C-14.2706246 1.1339109 -7.15251246 -0.17445152 0 0 Z " fill="#D9D4C2" transform="translate(89,135)"/>
<path d="M0 0 C0 0.99 0 1.98 0 3 C-7.05014265 5.07979208 -12.73812918 6.53616498 -20 5 C-20 4.67 -20 4.34 -20 4 C-17.41806023 3.32749476 -14.83467929 2.66182099 -12.25 2 C-11.15558594 1.71382813 -11.15558594 1.71382813 -10.0390625 1.421875 C-6.55428354 0.53484036 -3.61876278 0 0 0 Z " fill="#9EA1A6" transform="translate(228,85)"/>
<path d="M0 0 C3.96 0 7.92 0 12 0 C10.68 1.32 9.36 2.64 8 4 C6.97676564 5.31558703 5.96873032 6.64377755 5 8 C4.34 7.01 3.68 6.02 3 5 C2.01 4.67 1.02 4.34 0 4 C0 2.68 0 1.36 0 0 Z " fill="#5A5755" transform="translate(68,138)"/>
<path d="M0 0 C2.64 0 5.28 0 8 0 C7.67 0.99 7.34 1.98 7 3 C2.18912503 4.54926482 -1.91996441 5.25400178 -7 5 C-7 5.66 -7 6.32 -7 7 C-8.65 6.67 -10.3 6.34 -12 6 C-4.28571429 2 -4.28571429 2 0 2 C0 1.34 0 0.68 0 0 Z " fill="#B3B8C1" transform="translate(308,114)"/>
<path d="M0 0 C0.66 0 1.32 0 2 0 C0.80100302 3.0831351 -0.47700477 6.06279492 -2 9 C-1.01 9 -0.02 9 1 9 C1 9.66 1 10.32 1 11 C0.01 11 -0.98 11 -2 11 C-2.33 11.99 -2.66 12.98 -3 14 C-3.33 13.01 -3.66 12.02 -4 11 C-4.33 12.32 -4.66 13.64 -5 15 C-5.66 15 -6.32 15 -7 15 C-6.73564694 8.65552665 -4.45527379 4.54981541 0 0 Z " fill="#6D7179" transform="translate(107,153)"/>
<path d="M0 0 C2.31 0 4.62 0 7 0 C6.56179109 4.55737263 6.14958831 7.57653445 3 11 C2.49632243 9.54293274 1.99717444 8.08429904 1.5 6.625 C1.2215625 5.81289062 0.943125 5.00078125 0.65625 4.1640625 C0 2 0 2 0 0 Z " fill="#BCBDC3" transform="translate(96,154)"/>
<path d="M0 0 C0 0.66 0 1.32 0 2 C-6.56654456 4.3030887 -12.03672362 5.33693273 -19 5 C-16.07540663 2.53469612 -13.81790145 1.48951382 -10.0625 0.8125 C-8.81146484 0.57466797 -8.81146484 0.57466797 -7.53515625 0.33203125 C-4.99184871 -0.00106758 -2.56182553 -0.05957734 0 0 Z " fill="#6B6B6B" transform="translate(249,87)"/>
<path d="M0 0 C1.1653125 0.17144531 2.330625 0.34289062 3.53125 0.51953125 C6.5 1.1875 6.5 1.1875 8.5 3.1875 C3.88 3.5175 -0.74 3.8475 -5.5 4.1875 C-5.5 3.5275 -5.5 2.8675 -5.5 2.1875 C-6.49 2.1875 -7.48 2.1875 -8.5 2.1875 C-8.5 1.5275 -8.5 0.8675 -8.5 0.1875 C-5.52547377 -1.29976312 -3.25169752 -0.49998446 0 0 Z " fill="#8F9196" transform="translate(323.5,219.8125)"/>
<path d="M0 0 C1.03125 0.185625 2.0625 0.37125 3.125 0.5625 C9.41739387 1.38028404 15.71190966 0.57405319 22 0 C18.37744246 3.62255754 14.44033257 4.30541957 9.4375 4.375 C4.41291177 4.30728318 4.41291177 4.30728318 1.3125 2 C0.879375 1.34 0.44625 0.68 0 0 Z " fill="#54555B" transform="translate(20,164)"/>
<path d="M0 0 C0.33 0.99 0.66 1.98 1 3 C2.98 2.34 4.96 1.68 7 1 C6.67 3.31 6.34 5.62 6 8 C4.35 8 2.7 8 1 8 C0.67 7.34 0.34 6.68 0 6 C-0.66 6 -1.32 6 -2 6 C-2 4.35 -2 2.7 -2 1 C-1.34 0.67 -0.68 0.34 0 0 Z " fill="#8A8E95" transform="translate(221,183)"/>
<path d="M0 0 C-1 3 -1 3 -3 4 C-5.37402501 4.07116382 -7.75000677 4.08409085 -10.125 4.0625 C-11.40632813 4.05347656 -12.68765625 4.04445312 -14.0078125 4.03515625 C-15.48894531 4.01775391 -15.48894531 4.01775391 -17 4 C-14.63699651 1.63699651 -13.4201502 1.48566556 -10.1875 0.875 C-8.90939453 0.62363281 -8.90939453 0.62363281 -7.60546875 0.3671875 C-5.03156189 0.004448 -2.59538412 -0.06523407 0 0 Z " fill="#BFC1C9" transform="translate(357,161)"/>
<path d="M0 0 C2.475 0.99 2.475 0.99 5 2 C5.33 4.64 5.66 7.28 6 10 C3.625 9.6875 3.625 9.6875 1 9 C-1 6 -1 6 -0.625 3.9375 C-0.41875 3.298125 -0.2125 2.65875 0 2 C0 1.34 0 0.68 0 0 Z " fill="#2E2E2E" transform="translate(340,113)"/>
<path d="M0 0 C0.99 0 1.98 0 3 0 C3.268125 0.598125 3.53625 1.19625 3.8125 1.8125 C4.85407364 4.0308127 4.85407364 4.0308127 6.5625 5.375 C8.62278935 7.70402275 8.6639317 9.97538534 9 13 C7 13 7 13 5.0625 11.375 C2.03145986 7.88471135 0 4.68625148 0 0 Z " fill="#A5A7A7" transform="translate(8,179)"/>
<path d="M0 0 C2.66666667 0.66666667 5.33333333 1.33333333 8 2 C8 2.66 8 3.32 8 4 C6.25 5.6875 6.25 5.6875 4 7 C0.62154967 6.78884685 -1.43717643 5.10517651 -4 3 C-2.68 2.67 -1.36 2.34 0 2 C0 1.34 0 0.68 0 0 Z " fill="#888E96" transform="translate(132,145)"/>
<path d="M0 0 C4.33088264 0.32080612 6.96189817 3.16904148 10 6 C10 6.66 10 7.32 10 8 C9.01 8 8.02 8 7 8 C6.67 8.66 6.34 9.32 6 10 C5.401875 9.071875 4.80375 8.14375 4.1875 7.1875 C2.54727155 4.79745282 1.1281083 2.91529747 -1 1 C-0.67 0.67 -0.34 0.34 0 0 Z " fill="#8F9194" transform="translate(113,132)"/>
<path d="M0 0 C0.33 0.99 0.66 1.98 1 3 C-1.31 2.67 -3.62 2.34 -6 2 C-6 2.66 -6 3.32 -6 4 C-9.50871784 5.91384609 -10.81367786 6.04276246 -14.8125 5.125 C-15.864375 4.75375 -16.91625 4.3825 -18 4 C-18 3.67 -18 3.34 -18 3 C-15.3754034 2.49779928 -12.75036631 1.99814643 -10.125 1.5 C-9.37863281 1.35691406 -8.63226563 1.21382812 -7.86328125 1.06640625 C-2.2265625 0 -2.2265625 0 0 0 Z " fill="#5C5C5C" transform="translate(48,139)"/>
<path d="M0 0 C5.75 2.75 5.75 2.75 8 5 C9.32 5 10.64 5 12 5 C12 5.66 12 6.32 12 7 C5.07911053 7.60709557 2.32886161 6.44071801 -3 2 C-2.01 1.34 -1.02 0.68 0 0 Z " fill="#515656" transform="translate(150,89)"/>
<path d="M0 0 C1.41750563 0.11509661 2.83401169 0.24253658 4.25 0.375 C5.03890625 0.44460937 5.8278125 0.51421875 6.640625 0.5859375 C9.085877 1.01507113 10.84836903 1.78600638 13 3 C10.22296649 4.88838279 8.81270766 4.99354164 5.375 4.875 C2 4 2 4 0.7890625 1.9453125 C0.52867187 1.30335938 0.26828125 0.66140625 0 0 Z " fill="#8F9095" transform="translate(384,236)"/>
<path d="M0 0 C0.66 0.66 1.32 1.32 2 2 C1.7578125 4.8203125 1.7578125 4.8203125 1.125 8.125 C0.92132813 9.22070312 0.71765625 10.31640625 0.5078125 11.4453125 C0.34023437 12.28835937 0.17265625 13.13140625 0 14 C-0.99 14 -1.98 14 -3 14 C-3.33 15.65 -3.66 17.3 -4 19 C-5.39035371 14.82893888 -3.90230806 11.81793141 -2.5625 7.8125 C-2.31951172 7.06291016 -2.07652344 6.31332031 -1.82617188 5.54101562 C-1.22534944 3.69142499 -0.61370322 1.84535673 0 0 Z " fill="#C3C6C7" transform="translate(96,110)"/>
<path d="M0 0 C0.12375 0.639375 0.2475 1.27875 0.375 1.9375 C0.58125 2.618125 0.7875 3.29875 1 4 C1.66 4.33 2.32 4.66 3 5 C-2.14388862 4.56407724 -5.75485217 4.18386087 -10 1 C-10 0.67 -10 0.34 -10 0 C-6.30458414 -0.95024979 -3.69541586 -0.95024979 0 0 Z " fill="#9E9FA7" transform="translate(259,204)"/>
<path d="M0 0 C0.99 0.33 1.98 0.66 3 1 C3 2.32 3 3.64 3 5 C-1.60387979 6.00053923 -5.24450513 5.86574911 -9.875 5.0625 C-11.02742188 4.86785156 -12.17984375 4.67320312 -13.3671875 4.47265625 C-14.23601563 4.31667969 -15.10484375 4.16070312 -16 4 C-16 3.67 -16 3.34 -16 3 C-15.09636719 3.03480469 -14.19273438 3.06960937 -13.26171875 3.10546875 C-11.49248047 3.14607422 -11.49248047 3.14607422 -9.6875 3.1875 C-8.51574219 3.22230469 -7.34398437 3.25710937 -6.13671875 3.29296875 C-3.00711536 3.28717399 -3.00711536 3.28717399 -1.08203125 1.48828125 C-0.72496094 0.99714844 -0.36789063 0.50601563 0 0 Z " fill="#9DA0A5" transform="translate(47,200)"/>
<path d="M0 0 C0.66 0.33 1.32 0.66 2 1 C1.835 2.134375 1.67 3.26875 1.5 4.4375 C0.92423916 8.97060294 0.90494734 13.43747238 1 18 C0.34 17.67 -0.32 17.34 -1 17 C-1.31241371 14.45058627 -1.51303421 11.99638487 -1.625 9.4375 C-1.66367187 8.72658203 -1.70234375 8.01566406 -1.7421875 7.28320312 C-1.83671783 5.52257575 -1.91945817 3.76132272 -2 2 C-1.34 2 -0.68 2 0 2 C0 1.34 0 0.68 0 0 Z " fill="#979AA4" transform="translate(44,166)"/>
<path d="M0 0 C-0.99 0.33 -1.98 0.66 -3 1 C-3 1.66 -3 2.32 -3 3 C-8.8685408 4.14819277 -14.0885256 3.77313045 -20 3 C-20 2.67 -20 2.34 -20 2 C-13.25846717 0.74158054 -6.86515862 -0.26404456 0 0 Z " fill="#8F9195" transform="translate(80,157)"/>
<path d="M0 0 C0 0.33 0 0.66 0 1 C-7.93830773 3.64610258 -14.62459791 5.14440348 -23 5 C-19.65133292 3.12147944 -16.35733428 2.23630791 -12.625 1.375 C-11.52414062 1.11460938 -10.42328125 0.85421875 -9.2890625 0.5859375 C-6.11197215 0.01994753 -3.21847142 -0.10695826 0 0 Z " fill="#B5B6B9" transform="translate(322,99)"/>
<path d="M0 0 C5.61 0 11.22 0 17 0 C17 0.99 17 1.98 17 3 C10.93107371 3.25287193 5.83799592 2.69832609 0 1 C0 0.67 0 0.34 0 0 Z " fill="#848791" transform="translate(471,251)"/>
<path d="M0 0 C0.33 0 0.66 0 1 0 C0.41509121 6.14154225 -0.54066252 12.00679849 -2 18 C-2.66 18 -3.32 18 -4 18 C-4.33 19.65 -4.66 21.3 -5 23 C-6.28135441 19.15593677 -5.44269639 17.56437773 -4.1875 13.75 C-3.81496094 12.59628906 -3.44242187 11.44257812 -3.05859375 10.25390625 C-2.53458984 8.64322266 -2.53458984 8.64322266 -2 7 C-1.30962699 4.67234892 -0.65261764 2.33854655 0 0 Z " fill="#D0D1D3" transform="translate(114,53)"/>
<path d="M0 0 C1.21816406 0.03480469 1.21816406 0.03480469 2.4609375 0.0703125 C3.68683594 0.09738281 3.68683594 0.09738281 4.9375 0.125 C5.87722656 0.15980469 5.87722656 0.15980469 6.8359375 0.1953125 C3.8359375 2.1953125 3.8359375 2.1953125 1.8359375 2.1953125 C1.5059375 3.1853125 1.1759375 4.1753125 0.8359375 5.1953125 C-0.1540625 5.5253125 -1.1440625 5.8553125 -2.1640625 6.1953125 C-2.8240625 6.8553125 -3.4840625 7.5153125 -4.1640625 8.1953125 C-4.2890625 5.3203125 -4.2890625 5.3203125 -4.1640625 2.1953125 C-2.1640625 0.1953125 -2.1640625 0.1953125 0 0 Z " fill="#65686C" transform="translate(124.1640625,25.8046875)"/>
<path d="M0 0 C0.78375 0.04125 1.5675 0.0825 2.375 0.125 C2.045 0.7025 1.715 1.28 1.375 1.875 C0.10424102 4.32383862 0.10424102 4.32383862 0.375 8.125 C-2.595 7.63 -2.595 7.63 -5.625 7.125 C-4.53409091 0.21590909 -4.53409091 0.21590909 0 0 Z " fill="#7F838A" transform="translate(205.625,183.875)"/>
<path d="M0 0 C5.80342274 1.48805711 10.17590879 4.59097555 15 8 C14.01 8.495 14.01 8.495 13 9 C11.32936253 8.00664799 9.66324401 7.00568242 8 6 C6.33805547 5.64386903 4.671549 5.30791692 3 5 C2.01 4.34 1.02 3.68 0 3 C0 2.01 0 1.02 0 0 Z " fill="#34393A" transform="translate(279,170)"/>
<path d="M0 0 C4.87664009 -0.34833144 7.77050005 0.58314288 12 3 C12 3.66 12 4.32 12 5 C12.99 5.33 13.98 5.66 15 6 C12.03 5.67 9.06 5.34 6 5 C6 4.34 6 3.68 6 3 C3.03 2.505 3.03 2.505 0 2 C0 1.34 0 0.68 0 0 Z " fill="#94989B" transform="translate(412,244)"/>
<path d="M0 0 C5.05974141 0.49307825 8.14715551 2.06896264 12.3125 4.9375 C13.36050781 5.64777344 14.40851563 6.35804687 15.48828125 7.08984375 C18 9 18 9 19 11 C15.59534742 10.37607045 13.42220672 9.06961851 10.625 7.0625 C7.17776559 4.68647232 4.09773863 3.05070221 0 2 C0 1.34 0 0.68 0 0 Z " fill="#2F3336" transform="translate(142,84)"/>
<path d="M0 0 C0.33 1.32 0.66 2.64 1 4 C-2.96 4.66 -6.92 5.32 -11 6 C-11.33 5.01 -11.66 4.02 -12 3 C-8.04 2.01 -4.08 1.02 0 0 Z " fill="#B1B1B1" transform="translate(248,83)"/>
<path d="M0 0 C1.64666203 0.1135629 3.29236082 0.24117381 4.9375 0.375 C6.31228516 0.47941406 6.31228516 0.47941406 7.71484375 0.5859375 C8.84599609 0.79089844 8.84599609 0.79089844 10 1 C10.33 1.66 10.66 2.32 11 3 C8 5 8 5 5.51953125 4.7578125 C4.62621094 4.54898438 3.73289063 4.34015625 2.8125 4.125 C1.91144531 3.92132813 1.01039063 3.71765625 0.08203125 3.5078125 C-0.60503906 3.34023437 -1.29210937 3.17265625 -2 3 C-1.34 2.01 -0.68 1.02 0 0 Z " fill="#898A93" transform="translate(171,183)"/>
<path d="M0 0 C0.66 0.33 1.32 0.66 2 1 C1.42378906 1.43183594 0.84757812 1.86367187 0.25390625 2.30859375 C-1.17704761 3.38242914 -2.60687092 4.45777404 -4.03515625 5.53515625 C-5.03869141 6.29119141 -5.03869141 6.29119141 -6.0625 7.0625 C-6.73410156 7.56910156 -7.40570313 8.07570312 -8.09765625 8.59765625 C-9.69875045 9.77792898 -11.344963 10.896642 -13 12 C-11.64891639 8.90989789 -10.20982067 7.03089847 -7.625 4.875 C-7.03976563 4.37742188 -6.45453125 3.87984375 -5.8515625 3.3671875 C-3.95143888 1.96414264 -2.19508738 0.8762283 0 0 Z " fill="#515151" transform="translate(24,144)"/>
<path d="M0 0 C0.66 0.33 1.32 0.66 2 1 C1.45768102 3.98275439 0.76188274 6.78049546 -0.125 9.6875 C-1.35054637 12.84958374 -1.35054637 12.84958374 0 15 C-0.99 14.67 -1.98 14.34 -3 14 C-2.58846263 9.02906176 -2.20399168 4.55491614 0 0 Z " fill="#A5A4A5" transform="translate(12,159)"/>
<path d="M0 0 C0.66 0.33 1.32 0.66 2 1 C1 3 1 3 -1.6875 4.125 C-4.9579435 4.98889074 -7.63706182 5.16013991 -11 5 C-11.33 4.01 -11.66 3.02 -12 2 C-11.21753906 1.93941406 -10.43507813 1.87882813 -9.62890625 1.81640625 C-8.61699219 1.73261719 -7.60507812 1.64882812 -6.5625 1.5625 C-5.55316406 1.48128906 -4.54382813 1.40007812 -3.50390625 1.31640625 C-1.06359221 1.26788532 -1.06359221 1.26788532 0 0 Z " fill="#747576" transform="translate(367,154)"/>
<path d="M0 0 C-0.33 1.32 -0.66 2.64 -1 4 C-4.63 4.33 -8.26 4.66 -12 5 C-10 1 -10 1 -8.25 0.25 C-5.48552496 -0.05716389 -2.77898594 -0.06315877 0 0 Z " fill="#B6B6B6" transform="translate(380,155)"/>
<path d="M0 0 C-1.04800781 0.27263672 -1.04800781 0.27263672 -2.1171875 0.55078125 C-3.02726562 0.80214844 -3.93734375 1.05351563 -4.875 1.3125 C-5.77992188 1.55613281 -6.68484375 1.79976563 -7.6171875 2.05078125 C-10.32113319 2.86669852 -10.32113319 2.86669852 -12 6 C-13.32 5.67 -14.64 5.34 -16 5 C-16 4.01 -16 3.02 -16 2 C-14.08654673 1.46748234 -12.1690705 0.94940517 -10.25 0.4375 C-9.18265625 0.14746094 -8.1153125 -0.14257812 -7.015625 -0.44140625 C-4.15664073 -0.97098494 -2.68402617 -0.98370862 0 0 Z " fill="#B6BDC2" transform="translate(308,111)"/>
<path d="M0 0 C-1.75 5.75 -1.75 5.75 -4 8 C-3.67 6.02 -3.34 4.04 -3 2 C-5.31 2 -7.62 2 -10 2 C-10 1.34 -10 0.68 -10 0 C-6.33694766 -0.74926071 -3.57644848 -1.2380014 0 0 Z " fill="#909299" transform="translate(106,152)"/>
<path d="M0 0 C0 0.66 0 1.32 0 2 C-5.82748619 4.42811925 -11.7757491 4.61727907 -18 5 C-14.72202643 2.81468429 -12.26369694 2.22146592 -8.4375 1.375 C-6.70306641 0.98441406 -6.70306641 0.98441406 -4.93359375 0.5859375 C-2 0 -2 0 0 0 Z " fill="#B5A569" transform="translate(89,132)"/>
<path d="M0 0 C0 1.32 0 2.64 0 4 C-1.45742463 4.08096803 -2.91612807 4.13917774 -4.375 4.1875 C-5.18710938 4.22230469 -5.99921875 4.25710937 -6.8359375 4.29296875 C-7.55007812 4.19628906 -8.26421875 4.09960938 -9 4 C-9.66 3.01 -10.32 2.02 -11 1 C-7.26562152 0.12132271 -3.83225427 -0.08912219 0 0 Z " fill="#595B5E" transform="translate(172,116)"/>
<path d="M0 0 C-0.33 0.66 -0.66 1.32 -1 2 C-0.34 2.33 0.32 2.66 1 3 C0 5 0 5 -2 6 C-2.99 7.485 -2.99 7.485 -4 9 C-4.185625 7.576875 -4.185625 7.576875 -4.375 6.125 C-4.71687177 2.91332809 -4.71687177 2.91332809 -7 1 C-4.53721199 -0.231394 -2.7204945 -0.07159196 0 0 Z " fill="#8D9499" transform="translate(622,254)"/>
<path d="M0 0 C0.66 0 1.32 0 2 0 C2 1.65 2 3.3 2 5 C-9.385 4.505 -9.385 4.505 -21 4 C-21 3.67 -21 3.34 -21 3 C-11.1 2.505 -11.1 2.505 -1 2 C-0.67 1.34 -0.34 0.68 0 0 Z " fill="#838891" transform="translate(253,132)"/>
<path d="M0 0 C4.12494151 -0.05784708 8.24977944 -0.09354407 12.375 -0.125 C13.550625 -0.14175781 14.72625 -0.15851563 15.9375 -0.17578125 C17.61972656 -0.18544922 17.61972656 -0.18544922 19.3359375 -0.1953125 C20.37282715 -0.20578613 21.4097168 -0.21625977 22.47802734 -0.22705078 C25 0 25 0 27 2 C23.84419524 2 20.72884685 1.92128208 17.578125 1.78125 C16.55332031 1.73613281 15.52851563 1.69101563 14.47265625 1.64453125 C13.40917969 1.59683594 12.34570312 1.54914063 11.25 1.5 C10.17105469 1.45230469 9.09210938 1.40460938 7.98046875 1.35546875 C5.3202768 1.23776114 2.66012352 1.11924254 0 1 C0 0.67 0 0.34 0 0 Z " fill="#6E6E6E" transform="translate(246,107)"/>
<path d="M0 0 C1.45922693 0.11409593 2.91740598 0.24165544 4.375 0.375 C5.59316406 0.47941406 5.59316406 0.47941406 6.8359375 0.5859375 C9 1 9 1 11 3 C8.11788698 3.96070434 6.30149956 4.10581883 3.3125 4.0625 C2.10013672 4.04896484 2.10013672 4.04896484 0.86328125 4.03515625 C-0.05904297 4.01775391 -0.05904297 4.01775391 -1 4 C-0.34 3.67 0.32 3.34 1 3 C0.67 2.01 0.34 1.02 0 0 Z " fill="#B7BABD" transform="translate(609,251)"/>
<path d="M0 0 C2.64 0 5.28 0 8 0 C7.67 0.66 7.34 1.32 7 2 C4.4684134 2.63801836 2.00160498 3.16687368 -0.5625 3.625 C-1.27341797 3.7590625 -1.98433594 3.893125 -2.71679688 4.03125 C-4.47642553 4.36191847 -6.23804548 4.68195767 -8 5 C-7.67 4.34 -7.34 3.68 -7 3 C-6.01 3 -5.02 3 -4 3 C-4 2.34 -4 1.68 -4 1 C-2.68 1.33 -1.36 1.66 0 2 C0 1.34 0 0.68 0 0 Z " fill="#F0E6C2" transform="translate(80,131)"/>
<path d="M0 0 C0.53625 0.37125 1.0725 0.7425 1.625 1.125 C-0.025 1.455 -1.675 1.785 -3.375 2.125 C-2.715 3.445 -2.055 4.765 -1.375 6.125 C-4.3125 5.3125 -4.3125 5.3125 -7.375 4.125 C-7.705 3.135 -8.035 2.145 -8.375 1.125 C-2.95961538 -1.09038462 -2.95961538 -1.09038462 0 0 Z " fill="#4F5154" transform="translate(122.375,127.875)"/>
<path d="M0 0 C2.31 0 4.62 0 7 0 C7.66 1.32 8.32 2.64 9 4 C6.03 3.67 3.06 3.34 0 3 C0 2.01 0 1.02 0 0 Z " fill="#8F9196" transform="translate(491,264)"/>
<path d="M0 0 C0.66 0.99 1.32 1.98 2 3 C-1.90028225 5.60018816 -5.47434569 5.15085514 -10 5 C-10 4.34 -10 3.68 -10 3 C-8.02 3 -6.04 3 -4 3 C-4 2.34 -4 1.68 -4 1 C-2.68 0.67 -1.36 0.34 0 0 Z " fill="#AAADB2" transform="translate(72,195)"/>
<path d="M0 0 C0.66 0.99 1.32 1.98 2 3 C1.67 3.99 1.34 4.98 1 6 C0.01 6 -0.98 6 -2 6 C-2 7.32 -2 8.64 -2 10 C-2.66 10 -3.32 10 -4 10 C-3.38461538 3.47692308 -3.38461538 3.47692308 -1.4375 1.0625 C-0.7259375 0.5365625 -0.7259375 0.5365625 0 0 Z " fill="#9A9EA7" transform="translate(85,174)"/>
<path d="M0 0 C1.5778125 1.175625 1.5778125 1.175625 3.1875 2.375 C6.01696802 4.40508579 8.67338936 5.89112979 12 7 C9.45297384 8.27351308 8.5717055 7.80191925 5.875 7.0625 C5.15054688 6.86785156 4.42609375 6.67320312 3.6796875 6.47265625 C3.12539062 6.31667969 2.57109375 6.16070312 2 6 C2 5.34 2 4.68 2 4 C1.01 4 0.02 4 -1 4 C-0.67 2.68 -0.34 1.36 0 0 Z " fill="#7B7F88" transform="translate(106,158)"/>
<path d="M0 0 C2.31 0.33 4.62 0.66 7 1 C4.525 4.465 4.525 4.465 2 8 C1.67 7.01 1.34 6.02 1 5 C1.33 4.34 1.66 3.68 2 3 C1.01 2.67 0.02 2.34 -1 2 C-0.67 1.34 -0.34 0.68 0 0 Z " fill="#C7CAD0" transform="translate(211,182)"/>
<path d="M0 0 C0 0.66 0 1.32 0 2 C-1.43554025 2.50559908 -2.8735202 3.0042749 -4.3125 3.5 C-5.51326172 3.91765625 -5.51326172 3.91765625 -6.73828125 4.34375 C-9 5 -9 5 -12 5 C-12 4.01 -12 3.02 -12 2 C-10.7625 1.67 -9.525 1.34 -8.25 1 C-7.55390625 0.814375 -6.8578125 0.62875 -6.140625 0.4375 C-4 0 -4 0 0 0 Z " fill="#848688" transform="translate(56,161)"/>
<path d="M0 0 C0.33 0 0.66 0 1 0 C1.28571429 8.57142857 1.28571429 8.57142857 -1 12 C-1.66 12 -2.32 12 -3 12 C-2.67 9.36 -2.34 6.72 -2 4 C-1.34 4 -0.68 4 0 4 C0 2.68 0 1.36 0 0 Z " fill="#CACACE" transform="translate(102,92)"/>
<path d="M0 0 C0 0.33 0 0.66 0 1 C-1.65 1 -3.3 1 -5 1 C-5 1.66 -5 2.32 -5 3 C-8.75 4.125 -8.75 4.125 -11 3 C-11 2.34 -11 1.68 -11 1 C-7.2297564 -1.56376565 -4.32597804 -0.83191885 0 0 Z " fill="#7B7B7B" transform="translate(296,90)"/>
<path d="M0 0 C1.2065625 0.0309375 1.2065625 0.0309375 2.4375 0.0625 C1.921875 0.76375 1.40625 1.465 0.875 2.1875 C-0.86693767 5.67137535 -0.50943195 7.3608569 0.4375 11.0625 C-0.2225 11.0625 -0.8825 11.0625 -1.5625 11.0625 C-1.92359542 9.41817294 -2.27620076 7.7719792 -2.625 6.125 C-2.82222656 5.20847656 -3.01945313 4.29195312 -3.22265625 3.34765625 C-3.33480469 2.59355469 -3.44695312 1.83945313 -3.5625 1.0625 C-2.5625 0.0625 -2.5625 0.0625 0 0 Z " fill="#797C81" transform="translate(220.5625,187.9375)"/>
<path d="M0 0 C3.62187387 0.55721136 7.2215131 1.2089771 10.8125 1.9375 C11.58207031 2.09089844 12.35164063 2.24429688 13.14453125 2.40234375 C13.75683594 2.59957031 14.36914062 2.79679688 15 3 C15.33 3.66 15.66 4.32 16 5 C10.04492601 4.6083965 5.37180176 3.62875405 0 1 C0 0.67 0 0.34 0 0 Z " fill="#D1D3D5" transform="translate(396,183)"/>
<path d="M0 0 C0 3.63 0 7.26 0 11 C-0.66 9.68 -1.32 8.36 -2 7 C-2.99 7 -3.98 7 -5 7 C-4.6875 4.625 -4.6875 4.625 -4 2 C-1 0 -1 0 0 0 Z " fill="#AAADB3" transform="translate(88,169)"/>
<path d="M0 0 C0.33 0.66 0.66 1.32 1 2 C1.99 2.33 2.98 2.66 4 3 C2.71086513 3.67154933 1.41859796 4.33708859 0.125 5 C-0.59429687 5.37125 -1.31359375 5.7425 -2.0546875 6.125 C-4 7 -4 7 -6 7 C-6 6.34 -6 5.68 -6 5 C-6.66 4.67 -7.32 4.34 -8 4 C-5.10765685 3.17361624 -3.11257569 3 0 3 C0 2.01 0 1.02 0 0 Z " fill="#95979E" transform="translate(273,138)"/>
<path d="M0 0 C2.49398774 2.49398774 3.10613333 4.83552462 4.21875 8.125 C4.94192432 10.19575753 4.94192432 10.19575753 7 12 C3.31245243 11.50168276 1.39509338 10.89932357 -1 8 C-0.34 8 0.32 8 1 8 C0.67 5.36 0.34 2.72 0 0 Z " fill="#4F4F4F" transform="translate(345,115)"/>
<path d="M0 0 C-1.11328125 1.51953125 -1.11328125 1.51953125 -3 3 C-5.91796875 3.07421875 -5.91796875 3.07421875 -9.1875 2.6875 C-10.27417969 2.56761719 -11.36085937 2.44773437 -12.48046875 2.32421875 C-13.31191406 2.21722656 -14.14335937 2.11023438 -15 2 C-15 1.67 -15 1.34 -15 1 C-9.92928099 0.28832014 -5.11791642 -0.10662326 0 0 Z " fill="#606264" transform="translate(199,112)"/>
<path d="M0 0 C0.66 0.33 1.32 0.66 2 1 C3.53668865 1.22467831 5.07968054 1.40796805 6.625 1.5625 C7.44226563 1.64628906 8.25953125 1.73007813 9.1015625 1.81640625 C9.72804688 1.87699219 10.35453125 1.93757812 11 2 C11 2.33 11 2.66 11 3 C9.93072266 3.09087891 9.93072266 3.09087891 8.83984375 3.18359375 C3.53039712 3.64808101 -1.733409 4.18075251 -7 5 C-6.01 4.34 -5.02 3.68 -4 3 C-2.66209359 2.00612666 -1.32781878 1.0073108 0 0 Z " fill="#C5C8CC" transform="translate(105,182)"/>
<path d="M0 0 C1.65 0 3.3 0 5 0 C6.125 3.75 6.125 3.75 5 6 C4.34 6 3.68 6 3 6 C0.8614515 3.8614515 0.57344937 2.86724686 0 0 Z " fill="#71767C" transform="translate(120,176)"/>
<path d="M0 0 C2.475 0.495 2.475 0.495 5 1 C5 1.66 5 2.32 5 3 C6.32 2.67 7.64 2.34 9 2 C9 2.66 9 3.32 9 4 C6.03 4 3.06 4 0 4 C0 2.68 0 1.36 0 0 Z " fill="#888C91" transform="translate(274,208)"/>
<path d="M0 0 C0.99 0 1.98 0 3 0 C2.814375 0.928125 2.62875 1.85625 2.4375 2.8125 C1.75876119 6.01343771 1.75876119 6.01343771 3 9 C2.01 9.33 1.02 9.66 0 10 C-0.82269275 6.09220944 -1.2807202 3.84216059 0 0 Z " fill="#75777F" transform="translate(37,166)"/>
<path d="M0 0 C3.81684226 1.55500981 6.19195732 4.03595495 9 7 C8.01 7.33 7.02 7.66 6 8 C1.125 3.375 1.125 3.375 0 0 Z " fill="#E6E6E6" transform="translate(334,116)"/>
<path d="M0 0 C0.66 0 1.32 0 2 0 C2 1.98 2 3.96 2 6 C0.68 6.33 -0.64 6.66 -2 7 C-2.33 5.68 -2.66 4.36 -3 3 C-2.34 3 -1.68 3 -1 3 C-0.67 2.01 -0.34 1.02 0 0 Z " fill="#787878" transform="translate(366,128)"/>
<path d="M0 0 C0.99 0.33 1.98 0.66 3 1 C2.01 1.495 2.01 1.495 1 2 C1 2.66 1 3.32 1 4 C0.01 4 -0.98 4 -2 4 C-2 4.66 -2 5.32 -2 6 C-3.65 5.67 -5.3 5.34 -7 5 C-5.60683123 2.21366246 -3.84019484 2.06507306 -1 1 C-0.67 0.67 -0.34 0.34 0 0 Z " fill="#E5E7E9" transform="translate(310,123)"/>
<path d="M0 0 C2.31 0.66 4.62 1.32 7 2 C7 2.66 7 3.32 7 4 C4.69 4 2.38 4 0 4 C0 2.68 0 1.36 0 0 Z " fill="#878A93" transform="translate(434,248)"/>
<path d="M0 0 C5.05255964 0.63156995 9.29593201 2.13459373 14 4 C10.01344251 5.20284062 7.87029931 4.61262471 4 3 C1.625 1.375 1.625 1.375 0 0 Z " fill="#CBCCCF" transform="translate(498,215)"/>
<path d="M0 0 C1.134375 0.020625 2.26875 0.04125 3.4375 0.0625 C3.4375 0.7225 3.4375 1.3825 3.4375 2.0625 C4.4275 2.3925 5.4175 2.7225 6.4375 3.0625 C4.1275 3.3925 1.8175 3.7225 -0.5625 4.0625 C-0.5625 3.4025 -0.5625 2.7425 -0.5625 2.0625 C-1.8825 1.7325 -3.2025 1.4025 -4.5625 1.0625 C-3.5625 0.0625 -3.5625 0.0625 0 0 Z " fill="#8C8E93" transform="translate(204.5625,190.9375)"/>
<path d="M0 0 C1.32 0 2.64 0 4 0 C2.87994369 3.36016893 1.62788203 4.69064913 -1 7 C-1.66 7 -2.32 7 -3 7 C-1.125 1.125 -1.125 1.125 0 0 Z " fill="#686A6C" transform="translate(98,103)"/>
<path d="M0 0 C0 0.66 0 1.32 0 2 C-4.25566547 3.16063604 -7.6835078 2.76173392 -12 2 C-8.09971775 -0.60018816 -4.52565431 -0.15085514 0 0 Z " fill="#7C7C7C" transform="translate(248,82)"/>
<path d="M0 0 C0.33 1.32 0.66 2.64 1 4 C-3.455 3.01 -3.455 3.01 -8 2 C-4.77208445 -0.1519437 -3.71599191 -0.20086443 0 0 Z " fill="#909297" transform="translate(530,272)"/>
<path d="M0 0 C0.66 0.66 1.32 1.32 2 2 C-5.92 2.495 -5.92 2.495 -14 3 C-14 2.67 -14 2.34 -14 2 C-9.06632803 0.02653121 -5.23742659 -0.34916177 0 0 Z " fill="#A9ACB1" transform="translate(126,181)"/>
<path d="M0 0 C2.97 0.495 2.97 0.495 6 1 C5.01 2.32 4.02 3.64 3 5 C1.68 4.67 0.36 4.34 -1 4 C-0.67 2.68 -0.34 1.36 0 0 Z " fill="#94969C" transform="translate(126,177)"/>
<path d="M0 0 C0 0.99 0 1.98 0 3 C-0.78375 3.268125 -1.5675 3.53625 -2.375 3.8125 C-5.28114923 4.84814432 -5.28114923 4.84814432 -7 8 C-8.125 4.25 -8.125 4.25 -7 2 C-4.6859378 1.26924352 -2.35171131 0.59861742 0 0 Z " fill="#545656" transform="translate(93,155)"/>
<path d="M0 0 C1.5625 1.25 1.5625 1.25 3 3 C2.6875 5.1875 2.6875 5.1875 2 7 C2 6.34 2 5.68 2 5 C-0.97 4.505 -0.97 4.505 -4 4 C-3.67 3.34 -3.34 2.68 -3 2 C-2.01 2 -1.02 2 0 2 C0 1.34 0 0.68 0 0 Z " fill="#6D7071" transform="translate(115,136)"/>
<path d="M0 0 C1.98 0 3.96 0 6 0 C5.34 1.98 4.68 3.96 4 6 C3.34 5.67 2.68 5.34 2 5 C2 4.01 2 3.02 2 2 C1.34 2 0.68 2 0 2 C0 1.34 0 0.68 0 0 Z " fill="#4D4B46" transform="translate(70,140)"/>
<path d="M0 0 C0.99 0.33 1.98 0.66 3 1 C-1.75 5 -1.75 5 -4 5 C-4.33 5.66 -4.66 6.32 -5 7 C-5.66 6.34 -6.32 5.68 -7 5 C-6.401875 4.731875 -5.80375 4.46375 -5.1875 4.1875 C-3.02775192 3.01506533 -1.64209744 1.80630718 0 0 Z " fill="#A4A7AC" transform="translate(128,27)"/>
<path d="M0 0 C1.32 0 2.64 0 4 0 C4 0.66 4 1.32 4 2 C5.32 2.66 6.64 3.32 8 4 C2.46153846 4.36923077 2.46153846 4.36923077 0.125 2.5 C-0.24625 2.005 -0.6175 1.51 -1 1 C-0.67 0.67 -0.34 0.34 0 0 Z " fill="#8D9095" transform="translate(478,260)"/>
<path d="M0 0 C3.34373475 0.55728913 6.03312999 1.35173889 9 3 C8.34 3 7.68 3 7 3 C7 3.66 7 4.32 7 5 C5.68 4.67 4.36 4.34 3 4 C3 3.34 3 2.68 3 2 C2.01 1.67 1.02 1.34 0 1 C0 0.67 0 0.34 0 0 Z " fill="#8A8D92" transform="translate(401,240)"/>
<path d="M0 0 C2.97 0.495 2.97 0.495 6 1 C6 1.66 6 2.32 6 3 C1.25 4.125 1.25 4.125 -1 3 C-0.67 2.01 -0.34 1.02 0 0 Z " fill="#8E9195" transform="translate(297,214)"/>
<path d="M0 0 C0.66 0.33 1.32 0.66 2 1 C1.01 2.485 1.01 2.485 0 4 C0 5.32 0 6.64 0 8 C-1.32 8 -2.64 8 -4 8 C-3.40072174 4.64404172 -2.15377564 2.62198774 0 0 Z " fill="#62656A" transform="translate(216,185)"/>
<path d="M0 0 C-0.33 1.65 -0.66 3.3 -1 5 C-2.65 5 -4.3 5 -6 5 C-3.74193548 0 -3.74193548 0 0 0 Z " fill="#92969D" transform="translate(228,186)"/>
<path d="M0 0 C0.66 0.99 1.32 1.98 2 3 C-1.08809695 4.76462683 -2.23312136 5 -6 5 C-5.67 4.01 -5.34 3.02 -5 2 C-3.35 2 -1.7 2 0 2 C0 1.34 0 0.68 0 0 Z " fill="#484948" transform="translate(96,184)"/>
<path d="M0 0 C0.33 1.32 0.66 2.64 1 4 C-2.3 4.66 -5.6 5.32 -9 6 C-8.34 4.68 -7.68 3.36 -7 2 C-5.02 2 -3.04 2 -1 2 C-0.67 1.34 -0.34 0.68 0 0 Z " fill="#5D5C5E" transform="translate(98,166)"/>
<path d="M0 0 C2.31 0 4.62 0 7 0 C6.67 2.31 6.34 4.62 6 7 C5.67 7 5.34 7 5 7 C5 5.35 5 3.7 5 2 C3.35 2 1.7 2 0 2 C0 1.34 0 0.68 0 0 Z " fill="#A8ABB2" transform="translate(96,154)"/>
<path d="M0 0 C1.98 0 3.96 0 6 0 C6 0.99 6 1.98 6 3 C3.69 3.66 1.38 4.32 -1 5 C-0.67 3.35 -0.34 1.7 0 0 Z " fill="#A4A5AB" transform="translate(130,177)"/>
<path d="M0 0 C-0.99 0 -1.98 0 -3 0 C-3 0.66 -3 1.32 -3 2 C-5.31 2.33 -7.62 2.66 -10 3 C-9.67 2.01 -9.34 1.02 -9 0 C-5.62182575 -0.84454356 -3.32534757 -1.10844919 0 0 Z " fill="#5C5A5B" transform="translate(94,137)"/>
<path d="M0 0 C0 1.32 0 2.64 0 4 C-1.98 4.33 -3.96 4.66 -6 5 C-6 4.34 -6 3.68 -6 3 C-5.34 3 -4.68 3 -4 3 C-4 2.34 -4 1.68 -4 1 C-2 0 -2 0 0 0 Z " fill="#75767A" transform="translate(331,109)"/>
<path d="M0 0 C0.33 0 0.66 0 1 0 C1.1875 2.375 1.1875 2.375 1 5 C0.01 5.66 -0.98 6.32 -2 7 C-2.66 6.67 -3.32 6.34 -4 6 C-3.34 4.68 -2.68 3.36 -2 2 C-1.34 2 -0.68 2 0 2 C0 1.34 0 0.68 0 0 Z " fill="#47494F" transform="translate(273,110)"/>
<path d="M0 0 C0.5775 0.495 1.155 0.99 1.75 1.5 C4.10400629 3.36980013 4.10400629 3.36980013 8 3 C8 3.66 8 4.32 8 5 C5.36 5 2.72 5 0 5 C0 3.33333333 0 1.66666667 0 0 Z " fill="#5A5E60" transform="translate(154,91)"/>
<path d="M0 0 C0.928125 0.2784375 0.928125 0.2784375 1.875 0.5625 C4.04160178 1.23686176 4.04160178 1.23686176 6 0 C5.67 0.99 5.34 1.98 5 3 C3.02 3.33 1.04 3.66 -1 4 C-0.67 2.68 -0.34 1.36 0 0 Z " fill="#959A9F" transform="translate(597,316)"/>
<path d="M0 0 C0.99 0 1.98 0 3 0 C3.66 2.31 4.32 4.62 5 7 C4.01 6.67 3.02 6.34 2 6 C1.6278958 4.67696283 1.29369827 3.34262065 1 2 C0.34 1.67 -0.32 1.34 -1 1 C-0.67 0.67 -0.34 0.34 0 0 Z " fill="#E5EAED" transform="translate(547,281)"/>
<path d="M0 0 C0 0.66 0 1.32 0 2 C1.32 2.33 2.64 2.66 4 3 C1.45297384 4.27351308 0.5717055 3.80191925 -2.125 3.0625 C-2.84945312 2.86785156 -3.57390625 2.67320312 -4.3203125 2.47265625 C-4.87460937 2.31667969 -5.42890625 2.16070312 -6 2 C-3 0 -3 0 0 0 Z " fill="#83868A" transform="translate(546,276)"/>
<path d="M0 0 C-2.33214148 1.20628008 -4.49642139 2.1654738 -7 3 C-7.99 2.01 -8.98 1.02 -10 0 C-6.30458414 -0.95024979 -3.69541586 -0.95024979 0 0 Z " fill="#909198" transform="translate(259,204)"/>
<path d="M0 0 C4.455 0.99 4.455 0.99 9 2 C9 2.66 9 3.32 9 4 C4.545 3.01 4.545 3.01 0 2 C0 1.34 0 0.68 0 0 Z " fill="#95979C" transform="translate(138,177)"/>
<path d="M0 0 C-1.11375 0.45375 -2.2275 0.9075 -3.375 1.375 C-6.96199008 2.72465986 -6.96199008 2.72465986 -9 5 C-9.33 3.68 -9.66 2.36 -10 1 C-3.375 -1.125 -3.375 -1.125 0 0 Z " fill="#171818" transform="translate(94,154)"/>
<path d="M0 0 C2.64 0.33 5.28 0.66 8 1 C7.67 1.66 7.34 2.32 7 3 C5.02 3 3.04 3 1 3 C0.67 2.01 0.34 1.02 0 0 Z " fill="#90939D" transform="translate(160,139)"/>
<path d="M0 0 C-1.32 0.33 -2.64 0.66 -4 1 C-4 1.66 -4 2.32 -4 3 C-5.8125 3.625 -5.8125 3.625 -8 4 C-8.99 3.34 -9.98 2.68 -11 2 C-7.17679443 0.57741188 -4.08718695 -0.24042276 0 0 Z " fill="#5A5B5E" transform="translate(111,132)"/>
<path d="M0 0 C-0.66 0 -1.32 0 -2 0 C-2 0.66 -2 1.32 -2 2 C-4.97 2 -7.94 2 -11 2 C-6.98764085 -0.6749061 -4.6342454 -1.48957888 0 0 Z " fill="#606363" transform="translate(133,125)"/>
<path d="M0 0 C2.64 0 5.28 0 8 0 C5.64031256 2.09749995 4.45383006 2.96905704 1.25 3.1875 C0.13625 3.0946875 0.13625 3.0946875 -1 3 C-0.67 2.01 -0.34 1.02 0 0 Z " fill="#5E6063" transform="translate(200,111)"/>
<path d="M0 0 C2.64 0.33 5.28 0.66 8 1 C7.67 1.66 7.34 2.32 7 3 C4.4375 3.625 4.4375 3.625 2 4 C1.34 2.68 0.68 1.36 0 0 Z " fill="#85888F" transform="translate(389,237)"/>
<path d="M0 0 C1.64767247 0.28109113 3.29313145 0.57518526 4.9375 0.875 C5.85402344 1.03742188 6.77054688 1.19984375 7.71484375 1.3671875 C8.46894531 1.57601562 9.22304688 1.78484375 10 2 C10.33 2.66 10.66 3.32 11 4 C8.69 4 6.38 4 4 4 C4 3.34 4 2.68 4 2 C2.68 1.67 1.36 1.34 0 1 C0 0.67 0 0.34 0 0 Z " fill="#C9CDCE" transform="translate(552,232)"/>
<path d="M0 0 C0.99 0.33 1.98 0.66 3 1 C3.33 1.99 3.66 2.98 4 4 C1.36 3.67 -1.28 3.34 -4 3 C-2.1875 1.4375 -2.1875 1.4375 0 0 Z " fill="#989A9E" transform="translate(180,186)"/>
<path d="M0 0 C3.37462715 0.54723683 5.08235 1.0549 8 3 C4.94736336 3.98120464 3.05263664 3.98120464 0 3 C0 2.01 0 1.02 0 0 Z " fill="#CED0D4" transform="translate(388,180)"/>
<path d="M0 0 C-0.33 0.66 -0.66 1.32 -1 2 C-3.32156597 2.40729228 -5.6568787 2.74438677 -8 3 C-8 2.34 -8 1.68 -8 1 C-5.29120665 -0.35439668 -2.99066732 -0.06501451 0 0 Z " fill="#616466" transform="translate(366,162)"/>
<path d="M0 0 C4.55737263 0.43820891 7.57653445 0.85041169 11 4 C6.55129785 4.39253254 3.85756507 3.15305957 0 1 C0 0.67 0 0.34 0 0 Z " fill="#CACBCD" transform="translate(321,159)"/>
<path d="M0 0 C2.625 -0.1875 2.625 -0.1875 5 0 C5 0.66 5 1.32 5 2 C2.69 2.33 0.38 2.66 -2 3 C-1.34 2.01 -0.68 1.02 0 0 Z " fill="#8F929A" transform="translate(147,142)"/>
<path d="M0 0 C2 3 2 3 2 6 C0.68 6.33 -0.64 6.66 -2 7 C-2.33 6.01 -2.66 5.02 -3 4 C-2.34 4 -1.68 4 -1 4 C-0.67 2.68 -0.34 1.36 0 0 Z " fill="#BFC0B9" transform="translate(90,130)"/>
<path d="M0 0 C-4.73778043 2.36889021 -6.63970918 3.04875255 -12 2 C-8.09971775 -0.60018816 -4.52565431 -0.15085514 0 0 Z " fill="#595959" transform="translate(242,108)"/>
<path d="M0 0 C0.33 0 0.66 0 1 0 C1 1.65 1 3.3 1 5 C0.34 5 -0.32 5 -1 5 C-1.33 6.65 -1.66 8.3 -2 10 C-3.39195915 5.82412255 -1.82323219 3.86525224 0 0 Z " fill="#C7C9CA" transform="translate(111,66)"/>
</svg>
